<svg version="1" xmlns="http://www.w3.org/2000/svg" width="1053.333" height="1053.333" viewBox="0 0 790.000000 790.000000"><path d="M367.5.7C357.1 1.4 330 5 320 7c-65.8 13-125.1 41-176.7 83.4-13.3 11-41 38.6-52.2 52.1C41.8 201.9 12 271.6 2.3 350c-2.5 20.4-2.5 69.7 0 89.5 3.4 27.5 8.5 51.1 15.9 74.3 38.2 120.2 131 214.7 250 254.7 15.1 5 31.7 9.6 39.8 11 1.9.3 4.9 1 6.5 1.5 5.3 1.6 27.7 4.9 37 5.5 5 .3 12.4.9 16.5 1.3 10.3.9 43.2.9 56.5-.1 11.1-.9 34.2-4 42.5-5.7 18.9-4 37.4-8.7 45-11.5 1.9-.7 6.9-2.3 11-3.6 4.1-1.2 13.4-4.7 20.5-7.7 44.2-18.4 82.9-43 117.4-74.7 4.2-3.8 10.5-10.1 24.3-24.6 6.8-7 21.4-24.7 24.3-29.5 1-1.6 2.4-3.4 3-3.9 2.1-1.9 17.6-25.5 23-35 13.2-23.4 23.7-46.4 31.3-69 7.8-23.1 9.1-27.7 13.3-49.5.6-3 1.5-6.6 2-8 .9-2.7 2.4-14 2.1-15.3-.1-.5.2-2.5.7-4.5 2.9-11.3 4-56.5 2.1-83.2-1-14.2-6.5-49.2-9.5-60-.8-3-2.4-9.1-3.5-13.5-2.9-11.1-13.7-42.7-15.7-45.9-.4-.6-.8-1.7-.9-2.5-.4-2.5-19.3-39.6-24-47.1-4.3-6.8-13.5-20.9-17.4-26.5-.8-1.2-2.7-4-4.1-6.1-3.2-4.8-20.2-25.5-25-30.4-1.9-2-5.7-6-8.5-9C613.3 51.8 520.2 8 423.5 1c-13-.9-44.5-1.1-56-.3zM398 28.3c0 3.6-2 11.8-3.2 13.4-.6.7-1.2 4.2-1.4 7.8-.3 3.6-1 7.8-1.6 9.3-.6 1.5-1.3 3.8-1.4 5.2-.2 1.4-.7 4.1-1.3 6-1.2 4.4-5.8 24.4-6.6 29-.3 1.9-2.1 9.6-4 17-1.8 7.4-5 20.9-7 30-1.9 9.1-4.4 19.9-5.4 24-1 4.1-3.1 13.1-4.6 20-4.5 20.4-10.6 45.3-11.3 46.4-.4.6-.7 2.4-.8 4.1-.1 2.5-8 37.1-11.3 50-.6 2.2-1.8 7.4-2.7 11.5-.9 4.1-2 7.9-2.4 8.5-.4.5-1.3 4.1-1.9 8-3.4 19.7-3.9 22-7.7 36-1.3 4.9-3.7 15.9-5.3 24.3-1.6 8.5-3.2 15.6-3.5 16-.6.5-15.9-14.1-30.3-28.9-3.5-3.7-31.7-32-62.6-63.1C115.4 196 115.9 196.5 117.5 194c.6-.9-1.1-2.3-3.4-2.7-2.2-.3-4.4-3-3.6-4.3.4-.6 1.3-.9 2.1-.6.7.3 1.6.1 1.9-.4.4-.6 0-1-.9-1-2.2 0-10.3-7.8-9-8.7.6-.5 1.3-1.6 1.7-2.5.4-1.1 1.3-1.5 2.6-1.1 1.1.3 2.8.2 3.7-.1 1.3-.5 1.4-.9.4-2.1-.7-.9-1.5-1.3-1.8-1-1 .9-2.9-2.9-2.4-4.8.4-1.5 1.2-1.8 4.1-1.5 2 .3 4.1.7 4.6.9.6.2 1.1-.1 1.3-.6.2-.6 1-2 1.8-3.3 1.1-1.7 1.2-2.7.4-4.2-.6-1.2-.8-3-.5-4.1.6-1.9.8-1.9 3 .5 2.4 2.6 5.3 3.6 3.9 1.4-.5-.7-.2-.9.9-.5 1 .4 2.3-.3 3.7-2.1 1.2-1.5 1.9-2.1 1.5-1.5-.4.8 0 1.3.9 1.3 2.2 0 2-1.6-.5-3.9-1.5-1.4-1.7-2.1-.8-2.6.8-.6 1-.4.4.5-.5.8-.4 1.1.3.6 1.1-.7.6-3.6-.6-3.4-1.6.3-4.2-1.5-4.2-2.8 0-1.4 3.2-1.6 5.5-.3.6.3 1.9.5 3 .5 1.6-.1 1.9-.7 1.7-3.1-.2-1.7-1.1-3.8-1.9-4.8-1.5-1.6-1.4-1.7 1.9-1.7 2.2 0 3.8-.6 4.1-1.4.4-.9 1.8-1.4 3.5-1.4 4.4.1 5.3-.7 4-4.2-2.2-6.6 2.1-11.2 5.4-5.8 1.8 2.9 3.2 3.5 4.3 1.8 1-1.6 4.5-1.2 4.5.5 0 2.2 1.7 1.8 3-.6 1.9-3.4 7.3-1.6 8.2 2.7.2 1.1 1.3 2 2.7 2.2 1.3.2 2.1 0 1.7-.6-.4-.6.2-.8 1.4-.5 1.6.4 2 0 2-1.9 0-1.4-.9-3.3-2-4.3-2-1.8-2.9-7.2-1-6 .5.3 1 0 1-.7 0-1.1.2-1.1.9 0 .8 1.3 11.8 1.1 15.4-.3 3.3-1.4.8-5.4-3-4.9-1.2.2-2.4-.3-2.7-1.2-.5-1.3-1.5-1.5-4.4-1.1-4.1.7-5.3.2-6.9-2.7-.9-1.7-.7-2.2 1.4-3.3 2.6-1.3 4.9-.7 8.6 2.5.9.8 1.7 1.2 1.7.8 0-.4 1.2.2 2.6 1.3 3.2 2.5 4.4 2.6 4.4.6 0-.8-.5-1.5-1.1-1.5-.5 0-.8-.4-.4-.9.3-.5-1-1.5-2.9-2.2-4.2-1.5-5.1-3.4-3.2-6.5 1.8-2.6 5.1-2.2 7.7.9 1 1.3 2.2 1.8 3.2 1.4 2.3-.9 1.3-2.8-2.9-5.5-2.9-1.9-3.4-2.8-3.2-5.6.2-3.1.4-3.3 2.7-2.6 1.5.4 4.6 1.9 7.1 3.4 4.9 2.8 7 3.2 7 1.5 0-.7.7-1.7 1.5-2.3 1.4-1 1.4-1.5 0-4.9-1.4-3.5-1.3-4.2 1-3.7.5.1 1.4-.5 2-1.2 1.8-2.2 5.3-3.8 7.1-3.1 1.3.5 1.5.3.9-.7-.5-.8-.4-1.1.3-.6.6.3 2.2.2 3.7-.4 1.7-.7 2.4-.7 2 0-.3.6.1 1 1 1 1 0 1.5-.6 1.2-1.3-.6-1.7 4.5-6.7 6.8-6.7 1.4 0 1.6.6 1.1 3.5-.5 2.7-.4 3.5.7 3.5.8 0 1.4.8 1.3 1.7 0 1 .4 1.8.9 1.8 3.1.2 6.5 1.7 6.5 3 0 .7-.4 2.5-1 3.9-.7 2-.6 2.6.5 2.6.7 0 1.6-.4 1.9-.9.3-.4 2.5-.5 4.8-.1 5.4 1 6.3.4 4.3-2.6-.8-1.3-1.2-2.4-.8-2.4.5 0-1.2-1.1-3.7-2.4-2.5-1.2-4.5-2.9-4.5-3.7 0-.7 2.1-2.4 4.7-3.6 2.5-1.2 4.9-3.1 5.3-4.3.8-2.4 3-2.6 3.9-.4.6 1.5.8 1.5 2.5 0 1.9-1.7 1.9-1.8-.5-5.3-2.6-3.9-3.1-7.3-1.1-7.4.6 0 2.5-.2 4-.3 1.5-.1 3.3.1 3.9.5 1.8 1.1 1.2 5.9-1.2 8.4-2.2 2.3-2.2 2.3-.2 3.4 1.7.9 2.2.6 3.2-1.9.8-1.9 1.9-2.9 2.9-2.8.9.2 1.5-.2 1.4-.9-.3-1.6 4-2.9 4.5-1.4.8 2.3 2 1 1.8-2-.2-2.4.3-3.3 2.5-4.4 2.4-1.3 2.8-1.2 4.3.4.9 1 1.6 2.2 1.6 2.8 0 .6 1.8 1.3 3.9 1.5 2.9.2 4.2-.1 5-1.4.6-1 1.9-1.8 2.9-1.8s2.4-.6 3.1-1.3c.8-.7 1.1-.7.8-.1-.4.7.2 1.4 1.3 1.7 1.3.3 1.8 1.1 1.4 2-.3.8-.1 1.8.5 2.2 1.6.9 1.4 5-.3 6.4-1.1.9-1.8.7-3.3-1.2-1.9-2.4-1.9-2.4-4.2-.6-1.3 1.1-1.8 1.9-1.1 1.9 1.7 0 4.2 2.8 3.5 4-.3.5-1.3 1-2.1 1-1.8 0-1.8 1.4.1 3 1.7 1.4 5.5.4 5.5-1.5 0-.8.6-1.2 1.4-.9 1.9.7 5-5.8 4.4-9.1-.3-1.5-.1-2.5.7-2.5.6 0 2.1-1.1 3.3-2.5 1.2-1.4 2.7-2.5 3.3-2.5.5 0 .8-.4.5-.9-.9-1.4 2.9-5.2 4.1-4 .7.7 1.5.5 2.7-.6 1.8-1.9 2-3.1.6-4-.5-.3-1-1.6-.9-2.8 0-1.8.3-1.6 1.5 1.2 1.4 3 1.6 3.2 3.2 1.8 1.5-1.4 1.9-1.2 4.3 1.3 1.4 1.6 2.5 3.8 2.4 4.9-.1 1.2.7 2.8 1.7 3.8 1 .9 1.8 1.2 1.8.8 0-.5.6 0 1.4 1.1 1.8 2.4 4.7 1 5.3-2.5.3-2 0-2.3-2.3-1.8-1.7.3-2.2.1-1.5-.6.6-.6.5-1.7-.5-3.2-1.3-2-1.3-2.4.1-3.5 1-.8 1.5-.9 1.5-.1 0 .6.5 1.1 1.1 1.1.8 0 .8-.4.1-1.3-.5-.6-.9-2.3-.8-3.7.1-3.2 3.2-3.8 5.7-1.1 1.1 1.2 2.5 2.1 3 2.1 1.9 0 4.8 4.4 4.3 6.5-.4 1.8-.1 2.1 3 2 2-.1 3.6.2 3.6.7 0 .5.5.6 1.2.2.6-.4.8-.3.5.2-.3.6-.2 1.6.2 2.3 1.2 1.8 5.4.4 4.7-1.5-.3-.8-.2-1.3.2-1 .4.2 1.6-.3 2.7-1.1 1.4-1.1 1.5-1.4.4-1-.9.3-2 .2-2.5-.3s-2.2-1-3.9-1.2c-6.4-.7-6.6-7.8-.2-7.8 1.5 0 2.6.4 2.3.8-.3.5.8 1.6 2.5 2.6 2.8 1.6 3.5 1.3 3-1.6 0-.4.6-.5 1.5-.1 2 .8 3.6-1.7 2.2-3.4-.7-.9-.7-1.3.1-1.3.6 0 1.1-.7 1.1-1.5s1.7-2.3 3.8-3.4c4.1-2.1 5.2-1.5 5.2 3.2zm-27 .2c0 1.6-.6 2.5-1.5 2.5-1.8 0-2-2.1-.3-3.8 1.7-1.7 1.8-1.6 1.8 1.3zm-19.7 4c-.3.9-.8 1.4-1 1.1-.3-.3-.2-.9.2-1.5.9-1.6 1.5-1.3.8.4zm91.7.9c0 .8-.4 1.7-.9 2-1 .7-2.3-1.9-1.4-2.8 1.1-1.1 2.3-.6 2.3.8zm-138.5 6.2c-1.3 1-2.2 1.1-3.2.3-1.9-1.7-1.6-3.5 1-4.6 1.8-.9 2.4-.7 3.2.9.7 1.6.5 2.3-1 3.4zm128.1-3.1c.2 1.1-.2 2.5-.7 3.1-.7.9-.4 1.4.9 1.8 1.1.4 2.7 1.5 3.7 2.6 1.7 1.9 1.7 2.1.1 3.9-1.6 1.8-1.6 1.9 2 2.3 2.4.3 3.8 0 4.1-.9.3-.7 1.1-1.3 1.9-1.3.9 0 1.4-1.1 1.4-2.8 0-4 1.3-5.7 3-3.7.8 1 2 1.3 3.3.9 1.8-.6 1.9-.3 1.4 2.4-.4 2.1-.2 3.2.8 3.6.8.3 1.5.1 1.5-.4 0-.4 1.6-.7 3.5-.5 4.3.4 4.6-1.4 1-5.7-1.4-1.6-2.5-3.3-2.5-3.6.1-4.5 6.7-3.8 7.7.8.3 1.7.9 3 1.3 3 .7 0-.3 6.5-1.2 8-.2.3-1.1.4-2 .4-1.2-.1-1.7.5-1.4 1.9.4 2.9 2.3 3.3 3.1.7.4-1.2 1.3-1.9 2-1.7.7.3 1.8 0 2.4-.6 1.2-1.2 1.5-6.1.3-5.3-.4.2-.8-.9-.7-2.6 0-4.1 2.8-5.9 5.2-3.5 1 1 1.9 2.7 1.9 3.7.3 3.6.4 3.8 2.1 3.6 1-.2 1.8-1.4 2-3 .2-1.5 0-2.5-.5-2.2-1.5.9-.1-4.2 1.4-5.5 2.2-1.8 7.4 4.4 7.4 8.7 0 3.2 2.9 7 3.7 4.8.2-.7 1.2-1 2.2-.7 1.3.3 2.3-.3 3.3-2.2 1.1-2.4 2-2.8 6.1-3 3.3-.1 5 .2 5.4 1.1.3.8.9 1.1 1.4.8.5-.3.6.2.3 1-.4 1.2 0 1.6 1.6 1.6 2.1 0 5.3 2.3 4.5 3.2-.3.3 1.9.3 4.9 0 4.2-.3 5.4-.1 5.9 1.2.3.8.2 1.8-.3 2.1-1.7 1-1.1 2.5 1 2.5 2.3 0 2.6 1 .8 2.8-2 2-3.8 1.4-3.8-1.3 0-3.2-1.8-3.2-2.6 0-.4 1.6 0 3.4 1 5 2.2 3.4 2.1 6.5-.4 6.5-1 0-2.4.9-2.9 1.9-.9 1.5-.6 2 1.2 2.6 1.2.4 2.5.7 2.9.6.5-.1.7.2.6.7-.1.4.5 2 1.3 3.5l1.6 2.9 1.5-2.5c2.2-3.3 2.3-4.7.8-8.2-2.2-5.1-2-6.1 1.6-6 1.8 0 3 .3 2.8.7-.6.9 5.5 2.2 9 1.9 2.5-.2 2.8 0 2.3 1.8-.4 1.6.1 2.1 2.4 2.6 1.6.4 2.9 1.2 2.8 1.8-.4 3.2.1 3.7 2.7 2.7 3.6-1.4 4.4-1.3 4.5.7 0 1.1.3 1.3.6.5.2-.6 1.6-1.2 2.9-1.2 1.7 0 2.4.6 2.4 2 0 1.1.7 2 1.5 2 1.3 0 1.7-.6 1.4-2.6-.2-1.7 2.7-2.1 4.9-.6 2 1.3 2.3 2.1 1.9 4.9-.4 2.3-.2 3.6.8 3.9.7.3 1.5 1.4 1.8 2.5.4 1.4 1.4 1.9 3.6 1.9 2.1 0 3.1.5 3.1 1.5 0 .8.7 1.5 1.5 1.5 1.8 0 3.2 2.9 1.9 3.9-.5.3-1.7 1.8-2.7 3.3-2.9 4.6-6.4 3.1-4.6-1.9.8-2 .5-2.2-2.5-2.1-3.2.1-3.3.2-2 2.7.9 1.6 1 2.7.4 2.9-.6.2-.7.9-.3 1.5.4.7-.5.4-2-.6-3.4-2.2-3.7-2.2-3.7.8 0 1.8.7 2.6 2.4 3.1 1.4.3 3 .3 3.7-.2.7-.4 1-.3.6.3s.5 1.5 1.9 2.2c3.2 1.4 3.4 1.4 3.4-.4 0-.9.8-1.9 1.8-2.2.9-.4 2-1.1 2.4-1.8.8-1.4 17.4-1.4 17.1 0-.1.6 2.1 1 5 1 5.7 0 8.7.9 8.6 2.8 0 .9-.2.8-.6-.1-.6-1.5-4.3 4.9-4.3 7.4 0 .8-.4 1.3-.9 1-.5-.4-.8 1.2-.6 3.5.4 5.3 3 7.4 5.7 4.6 1.5-1.7 5.1-.9 4.4.9-.6 1.5 1.9 4.4 3.8 4.4.8 0 1.9.7 2.6 1.5 1.3 1.6 3.5 2.1 2.6.7-.3-.5.1-.9.9-.9s1.5.6 1.5 1.4c0 .7.5 1.3 1 1.3.6 0 1 .8 1 1.7 0 1.4-.2 1.5-.9.5-.6-1.1-.9-1-1.3.5-.7 2.9.1 4.6 1.7 3.3 1-.8 1.5-.6 2 .9.6 2.1 3.5 3 3.5 1 0-.5.5-.7 1-.4.6.3 1-.1 1-1 0-1.1-.5-1.5-1.5-1.1-1 .3-1.8-.1-2.2-1.2-.3-.9-1.2-2.5-2-3.4-1.6-1.8-.8-4.3 2.1-6.7 1.3-1.1 1.8-1 3 .2 1.8 1.7 2.4 6.6 1.1 8.7-.4.8.4.4 1.8-.9l2.7-2.4v2.6c0 3.3 1.2 3.4 5 .6l2.9-2.2 4.2 2.1c2.3 1.2 4.7 1.9 5.2 1.5.5-.3.1.6-.8 2.1-2.1 3.1-1.4 5.3 1.6 5.8 1.2.2 2.4.7 2.6 1.3.3 1-4.1 3.5-6.2 3.5-.7 0-1.2.7-1.2 1.5 0 .9.6 1.4 1.4 1.1.7-.3 2.6.8 4.2 2.5l2.9 3 2-2.1c1.7-1.9 2.1-1.9 3.5-.6.8.8 1.8 1.2 2.2.8.5-.4.5-.1.1.6-1.1 1.9-1.6 7.3-.7 6.7.5-.3 1.2.3 1.6 1.3.6 1.6.7 1.6 1.6-.1 1.1-1.9 2.9-2.3 2.9-.6 0 .5-.4.8-.9.5-1.4-.9-2.2 2.4-1.1 4.5 1.3 2.4 2.1 2.5 1.3.1-.5-1.3-.3-1.4.7-.5 1.5 1.4.5 3.4-1.4 2.7-.7-.3-1.6.2-1.9 1-.4.9-.2 1.6.4 1.6.6 0 .9.6.7 1.2-.3.7-1.3 1.3-2.4 1.3-1 0-3.1 1.2-4.6 2.7-1.5 1.6-3.4 2.8-4.3 2.8-.8 0-1.5.7-1.5 1.6 0 2.2 3.8.8 7-2.5 2.8-3 7.3-3.2 6.8-.3-.2 1.3.6 1.8 3 2 1.8.2 3 .7 2.8 1.1-.3.4.1.8.9.8s1.2-.4.9-.9c-.4-.5.3-.4 1.4.3 1.8 1.1 2.4 1 4-.4 1-.9 2.5-1.7 3.3-1.7.9 0 1 .3.3.8-.6.4-1.4 1.7-1.8 2.9-.4 1.3-1.2 2.3-1.7 2.3-1.1 0-.7 4.5.5 5.7.4.4 1.3.1 2-.8.6-.9 2.4-1.7 4-1.7 2.5 0 2.7.3 2.3 2.7-.3 1.5.1 3.3 1 4.3 1.3 1.5 1.2 2.1-1.2 6.2-1.5 2.5-2.4 5-2 5.5.7 1.2 3.6.2 5.1-1.7.5-.8 2.7-1.5 4.7-1.6 3.2-.3 3.8.1 4.3 2.1.5 1.7 0 2.8-1.7 4.1-1.3 1.1-1.9 2.4-1.5 3.1.6.9 1.1.9 2.1.1 1-.9 1.3-.7 1.1.7-.2 1.2-1 1.7-2.5 1.5-1.1-.2-2.1.2-2.1.7 0 .6-.8 1.1-1.7 1.1-1 0-2.5.5-3.3 1-1.3.8-1.2 1.1.5 2.4 2 1.5 2 1.5 0 3-1.1.8-2.9 1.6-4.1 1.6-1.1 0-2.4.3-2.8.7-1.4 1.4-29 10.1-40.6 12.7-3 .7-9.3 2.5-14 3.9-8.1 2.5-15.5 4.7-44 13.2-6.9 2-15.2 4.5-18.5 5.5-3.3 1-11.4 3.2-18 5-6.6 1.7-14.5 4-17.5 5-7.9 2.6-23.4 7-47 13.5-11.3 3-24.8 6.9-30 8.5-5.2 1.6-12.5 3.6-16.3 4.3-3.7.8-7.3 1.9-8 2.5-.6.5-3.7 1.7-6.7 2.5-4.8 1.3-10.6 3-23.5 6.7-8.2 2.4-22.5 5.8-26.4 6.4-2.4.4-4.9 1-5.5 1.3-1.3.8-16.1 6.1-19.3 7-2.8.7-2.8 1.1-.3-9 3.8-16.1 13.2-56.3 15.1-64.7 1.9-8.5 3.1-13.3 5-20 .6-1.9 1.5-5.9 2.1-8.8.5-2.8 1.4-5.2 2-5.2.5 0 .7-1.2.3-2.9-.4-1.8.8-8.5 3.6-19.2 2.3-9 5.2-21.4 6.4-27.4 2.1-10.2 6.1-27.4 12.1-52.5 1.4-5.8 3.9-16.4 5.5-23.5 1.6-7.2 3.8-16.6 4.8-21 1-4.4 2.6-11.4 3.6-15.5 3.8-17.1 6.7-25.4 8.7-24.8.6.2 1.3 1.3 1.4 2.3zm-110.8 1.2c-.2.9-1 1.7-1.9 1.8-1.2.2-1.5-.3-1.2-1.6.6-2.3 3.6-2.6 3.1-.2zm-67.5 19.7c.7 1.9-1.8 4.2-2.8 2.6-.8-1.3.1-4 1.4-4 .5 0 1.1.6 1.4 1.4zm285.1.2c1.3.5 1.2.9-.8 2.5-1.3 1-2.7 1.9-3 1.9-1.1 0-.6-2.6.6-3.8 1.4-1.4 1.2-1.4 3.2-.6zm-291 6.1c-.4 1.6-.7 2.9-.8 2.9-.1.1-1.2-.3-2.6-.8l-2.5-.9 2.4-2c3.2-2.6 4.3-2.4 3.5.8zm310.4 1.4c3.2 2.9 3.3 3 1.6 5.7-1.1 1.9-2.3 2.8-3.8 2.6-1.1-.1-2.4-.3-2.9-.3-1.9-.2-2.7-5.3-1.2-8.2.9-1.6 1.9-2.9 2.3-2.9.4 0 2.2 1.4 4 3.1zM589 79.5c1 1.2 1 1.8 0 3-1.6 1.9-3.9 1.9-4.6 0-.6-1.5 1.1-4.5 2.6-4.5.4 0 1.3.7 2 1.5zm12.6 12.7c.5.7.3.8-.6.3-1-.6-1.2-.4-.7.8.5 1.2.1 1.7-1.3 1.7-2.5 0-2.6-1.6-.2-2.9 2.1-1.3 2-1.3 2.8.1zm9.7 11.7c-.3 1.2-1.1 1.7-1.9 1.4-1.7-.6-1.8-1.5-.2-3.1 1.5-1.5 2.7-.6 2.1 1.7zm-433.3-.5c0 .3-.4.8-1 1.1-.5.3-1 .1-1-.4 0-.6.5-1.1 1-1.1.6 0 1 .2 1 .4zm-9.4 4.7c.3.6.2 1.5-.4 2.1-.7.7-1.4.3-2.1-1.1-1-1.7-.9-2.1.3-2.1.8 0 1.8.5 2.2 1.1zm457.1 3.3c-1.6 1.2-1.5 1.4 1.3 2 2.7.5 3 .9 2.4 3.1-.4 1.5-.1 3.2.7 4.2 1.2 1.4 1.2 1.6 0 .8-1.1-.6-1.3-.2-.7 1.9.7 3-.7 5.6-2.9 5.6-1.8 0-2.4-3-1.2-5.7.8-1.8.6-2.8-.8-4.3-1-1.1-2.2-1.7-2.6-1.4-1.4.8-1.1-1 .3-2.4 1-1 1-1.5-.1-2.1-1-.6-.6-1.1 1.5-1.9 3.9-1.4 4.2-1.4 2.1.2zm-447.9 6.5c-1.5.5-1.9-.4-1.1-2.4.6-1.8.7-1.8 1.3.1.4 1 .3 2.1-.2 2.3zm442.2 2.9c-.6.2-.8.7-.6 1.1.3.4-.1.8-.9.8-1.8 0-1.8-.2-.4-2.9.9-1.7 1.3-1.8 2-.7.5.8.4 1.5-.1 1.7zm20.3.8c.8.9-1.1 4.4-2.3 4.4-.6 0-1-1.1-1-2.5 0-2.3 1.8-3.4 3.3-1.9zm-510.8 25.3c1 1.7-1.5 2.3-3.1.7-1.4-1.5-1.4-1.6.5-1.6 1.1 0 2.2.4 2.6.9zm558.6 35.4c-.7.7-1.6.6-2.9-.6-1-.9-2.2-1.5-2.5-1.2-.4.3-.4.1 0-.4.5-.5 1.9-1.1 3.3-1.3 2.7-.3 3.9 1.7 2.1 3.5zM91.6 216.4c7.1 5.3 14.6 12.4 19.9 19 2.2 2.7 4.9 5.6 6 6.5 5.1 4.2 31.9 30.7 113.9 112.8 60.8 60.9 90.2 89.7 92.7 90.7 2 .8 6 4.1 8.9 7.3 2.9 3.2 7.8 8 10.9 10.6 3.1 2.6 5.6 5.3 5.6 5.9 0 1.2-.2 1.3-36.6 10.6-12.9 3.3-26.7 6.9-30.5 8.1-3.8 1.1-14.3 3.9-23.4 6.2-9.1 2.3-17.2 4.5-18 4.9-.8.4-3.2 1.1-5.3 1.4-2.1.3-9.1 2-15.5 3.7-6.5 1.7-20.5 5.3-31.2 8-17 4.4-26 6.8-41 10.9-1.9.5-7.8 1.9-13 3-5.2 1.2-11.7 2.7-14.5 3.5-2.7.8-8.5 2.3-12.7 3.5-9.3 2.6-18.6 3-20.2.9-.7-.9-2.8-1.3-6.1-1.2-2.7.1-5.5-.3-6.2-.9-.7-.6-2.2-.8-3.3-.5-1.7.4-2 .2-1.5-1.4.4-1 .2-2-.4-2-2-.3-2.6-.5-4.9-1.7-1.7-1-2.1-1.9-1.6-3.4.5-1.8.3-2-1.6-1.5-1.6.4-2 .2-1.6-.9.3-.8-.3-1.9-1.3-2.6-1.8-1.1-1.8-1.2 0-4.6 1.1-1.9 1.7-4.2 1.4-5.3-.4-1.1-.2-1.9.6-1.9s.8-.4.1-1.3c-.7-.8-.7-1.8-.2-2.7.8-1.2 1-1.1 1 .5s.2 1.7.9.6c.5-.8.7-2 .4-2.8-.7-1.7-3.9-1.7-4.6.1-.3.8-1.9 1.7-3.6 2.1-1.7.4-2.8 1.1-2.5 1.6.8 1.3-2.9.7-3.8-.6-1.7-2.3-.8-4.3 1.7-4 1.4.1 2.8-.2 3.1-.7.3-.4 1-.6 1.5-.2.5.3.7 1 .4 1.5-.4.5-.2.9.4.9 1.6 0 2.4-2.1 1.2-3.3-.9-.9-1.6-.9-2.9 0-1.2.7-2.4.8-3.4.2-1.1-.6-1.9-.5-2.3.1-.4.6-1.1.8-1.6.5-1.8-1.2-.8-2.3 2.6-2.9 3.2-.6 4.1-1.8 3.6-4.9 0-.4.3-.7.9-.7.5 0 1-.5 1-1.1 0-.6-1.2-1-2.7-.9-4.2.3-5.5.1-4.9-.9.3-.4-.3-3.1-1.3-6-1.1-2.8-1.5-4.9-1-4.5 1 .6 1.3-1.5 1-6-.2-1.8.1-2.6.8-2.1.6.3 1.1-.1 1.1-.9 0-2.1-1.2-2-4.3.4-3.5 2.8-7.1 2.7-6.4-.1.4-1.6.2-1.9-1.1-1.4-.9.3-1.3.3-.9-.1s0-1.5-.9-2.5c-1.4-1.6-1.4-1.9.5-3.8 1.1-1.1 1.8-2.7 1.5-3.6-1-2.6 2.7-3.2 4.4-.7 2 3 3.2 2.7 3.2-.8 0-1.7-.4-3-1-3-2.2 0-3.1-4-1.6-7 1.4-2.9 1.4-3-.9-3-3.2 0-5.3-2.7-3.7-4.8.7-1 1.5-2.5 1.8-3.5.4-.9 1.1-1.7 1.6-1.7s.6-.5.3-1c-.4-.6-1.1-.8-1.6-.5-.5.4-.9-.2-.9-1.3 0-2.3 4.3-7.2 6.3-7.2.8 0 1.7-.8 2-1.8.2-.9.8-2.5 1.2-3.5.5-1.2.2-1.7-.9-1.7-.9 0-1.6.5-1.6 1.2 0 .6-.3.9-.6.6-.3-.3-1.6.4-2.9 1.6-2.1 1.9-4.3 2.4-9 1.7-.5 0 .1-.8 1.3-1.7 1.3-.9 2.1-2.2 1.8-3-.3-.8-.1-1.4.4-1.4.6 0 1-.5 1-1.2 0-.6-.3-.8-.7-.5-.3.4-1.3-.2-2-1.3-1.3-1.8-1.3-2.4.1-4.4 1.4-2.2 1.4-2.4-.2-2.8-.9-.3-2.3-2.1-3-4-1.5-4.3-.2-8.7 2.8-9.5 1.1-.3 1.8-.9 1.5-1.3-.2-.4.7-.6 2-.4 1.4.1 2.3-.2 1.9-.7-.6-1-1.1-4-1.7-9.3-.2-1.6.3-3.4 1.1-4 4.3-3.4 8.2-7.7 8.2-9.1 0-1-.9-1.5-2.8-1.5-3.1 0-7.2-2.5-7.2-4.4 0-.7.9-2.1 1.9-3 2-1.8 1.8-2.6-2.4-10.9-1.9-3.7-1.2-4.7 3-4.4 1.8.1 3.2.3 3.1.5-.2.1 1.3 1.9 3.3 4 3.9 4.2 7.4 6.1 6.4 3.7-.3-.8-.9-1.2-1.4-.9-.5.3-.9-.2-.9-1.2 0-.9-1.3-2.9-2.8-4.4-2.1-2-2.7-3.2-2.1-4.7.5-1.4-.1-2.9-2.2-5.4-1.6-1.9-2.9-3-2.9-2.6 0 .4-.9-.1-2.1-1.2-3.9-3.6-.6-5.2 5.9-2.9 3.1 1.2 3.5 1.1 5.2-1.2 1-1.3 1.6-2.8 1.4-3.2-.8-1.3-4.1-.9-5.6.5-.7.8-1.8 1.3-2.3 1.1-.6-.1-2.3-.5-3.8-.8-2.5-.6-2.8-1.1-2.5-3.9.2-2.4.8-3.3 2.5-3.5 1.2-.2 2.7-.9 3.3-1.7 1.6-1.9 7.2 1.3 6.4 3.7-.3 1.2 0 1.5 1.3 1.3 1-.1 1.7-.9 1.5-1.6-.5-1.9-3.3-4.9-4.6-4.9-.6 0-2.6-.9-4.4-2-2.8-1.7-3.2-2.3-2.2-3.5.7-.8 2-1.5 3-1.5s2.3-.7 3-1.6c1-1.1 2.6-1.4 5.8-1.1 3 .3 4.5 0 4.9-1 .3-.7 2-1.3 4-1.3 1.9 0 3.2.4 2.8.9-.3.5.1 1.5.8 2.3.7.7 1.6 2.1 2 3 .3 1 1.5 1.8 2.5 1.8 2.5 0 4.6-2.5 3.8-4.5-.3-.9.2-2 1.3-2.7 1.8-1.1 1.8-1.2-.2-2.7-1.2-.9-3.8-2.4-5.8-3.4-2-1.1-3.6-2.6-3.5-3.4 0-.9-1.5-2.4-3.4-3.5-5.1-2.9-8.1-6.3-6.7-7.7.6-.6 2.2-1.1 3.7-1.2 1.4 0 2-.3 1.3-.5-.7-.3-.9-1.2-.6-2 .3-.8-.1-1.4-.8-1.4-.7 0-1-.3-.6-.6.3-.3.2-1.6-.3-2.8-.5-1.3-.4-2.9.1-3.7.7-1.1.9-1.1.9.3 0 1.1.8 1.8 2 1.8 1.1 0 2 .4 2 1 0 1.2 8.9 5.1 10.1 4.4.5-.3.8 0 .7.8-.2.7.8 1.4 2.2 1.6l2.5.4-2.3-2.5-2.3-2.4L76 272c1.7-.7 3.3-1.7 3.7-2.3.3-.5.1-.7-.4-.4-.6.4-1.8-.4-2.7-1.8-.9-1.4-2.3-2.5-3-2.5-.8 0-1.6-.7-2-1.5-.3-.8-1.4-1.5-2.4-1.5s-3.7-1.8-6.1-3.9c-4.2-3.8-4.3-4-3.2-7.3 1.3-3.9 4.4-6.2 7.2-5.3 1.8.6 1.9.5.7-1.5-1.1-1.8-1-2.3.7-3.6 1.2-.9 1.9-2.4 1.7-3.9-.2-1.6.3-2.5 1.7-3 2.5-.8 2.6-1.8.6-3.5-.8-.7-1.5-1.9-1.5-2.6 0-.8-.5-1.4-1.1-1.4-.5 0-.7-.5-.3-1.2.6-.9.9-.9 1.2 0 .3.9.8 1 1.6.3 1.2-1 6.5-1.5 10-.9 2.6.4 4.1-4.7 2.1-7.5-1.3-1.9-1-4.7.5-4.7.4 0 3.4 2 6.6 4.4zM80.5 215c-.3.5-.1 1 .5 1s.8.4.5 1c-.3.5-1.4 1-2.3.9-1 0-1.2-.3-.5-.5.7-.3.9-1.2.6-2-.3-.8 0-1.4.7-1.4.6 0 .8.4.5 1zm650.4 42.4c.8 1 .4 2-2 4.5-4 4.2-2.5 6.3 1.9 2.7 2.8-2.5 9-3.7 7.7-1.6-.3.5-.2 1 .4 1 1.4 0-1.5 5.4-4.9 9-1.7 1.8-3 3.4-3 3.6 0 1.6 5 4.9 7.5 4.9 2.6 0 3.3.6 5.3 4.8 1.8 3.8 2.1 5.2 1.1 6.3-.6.8-.7 1.4-.2 1.4.5 0 .9 1 .7 2.2-.1 1.3-.3 2.3-.4 2.3-.1 0-.3.8-.5 1.8-.2.9.1 1.5.6 1.1.5-.3 1.3.5 1.8 1.8s1.6 3 2.4 3.7c1.8 1.5 1.2 4.1-1 4.1-1 0-1.4.7-1 2 .6 2.4-.6 3.4-3.3 2.5-2.4-.7-2.6-3-.5-3.9.8-.3 1.5-1 1.5-1.6 0-.5-.7-1-1.5-1s-1.5.5-1.5 1.1c0 .5-.4.8-1 .4-.5-.3-1.7.9-2.6 2.7-2.2 4.4-3.4 5-6.1 3.3-3.2-2.2-4.2-1.8-3.7 1.1.3 1.4-.2 4-1.1 5.7-.8 1.7-1.2 3.4-.8 3.8 1.4 1.3 6.3-.3 7.5-2.4 1.1-2.1 4.8-5.6 5.9-5.7 1 0 3.4 6.3 3.1 7.9-.2.7.9 2.6 2.4 4.2s2.4 2.9 1.8 2.9c-.5 0-.2.5.6 1.1 1.3.9 1.3 1-.1.6-2.3-.7-4.1.7-3.3 2.6.7 2 2.3 2.1 4.9.4 1.1-.7 3.3-1.4 4.9-1.6 2.8-.3 2.9-.1 2.2 2.9-.3 1.8-.6 4.1-.6 5.1 0 1.4-.7 1.9-2.7 1.9-2.9 0-6.3-2.5-6.3-4.7 0-2-1.8-1.6-3 .8-1 1.7-.8 2.1.9 2.6 1.3.3 2.1 1.3 2.1 2.7 0 2.9 1.8 4.6 4.9 4.7 2.1.1 2.2.2.6.6-2.3.6-4.5 2.2-4.5 3.3 0 .4 1.3 1 2.9 1.3 1.6.3 3.1 1.4 3.5 2.3.8 2.1-2.2 5.4-5 5.6-1.6.2-1.9.9-1.9 4.7 0 2.8.5 4.5 1.2 4.4.6-.1.9.6.6 1.7-.3 1.1-1 2-1.5 2-.6 0-.5.6.2 1.5 1.8 2.1.8 4.8-2 5.2-1.3.2-2.8.7-3.2 1.1-.9.9 2.2 7.3 3.3 6.7.4-.3.6.4.4 1.5-.2 1.3.1 2 1.1 2 1.7 0 1.9 4.1.2 5.8-1.6 1.6-.4 2.5 3.9 2.8 5.8.3 5.9.4 4.3 1.4-.8.5-1.1 1.3-.6 1.7.4.4 1.4-.1 2.2-1.1.8-1.1 1.4-1.5 1.4-.9s-.7 1.6-1.5 2.3c-1.1.9-1.2 1.7-.5 3 .9 1.7.5 1.9-6.6 1.7-5.9-.1-7.9.2-8.8 1.4-.6.9-1.4 1.7-1.8 1.7-.5.1-.8.5-.7.8 0 .4-.5 1-1.2 1.5-1.4.8-2.1 3.7-1.4 5.6.5 1.6 3.5.5 3.5-1.3 0-3.3 6.2-3.9 10.1-1 1.3.9 1.8 1.4 1 1-.9-.4-1.2-.2-.9.7.3.8 1.8 1.6 3.4 1.9l2.8.5-2.9 2.3c-1.7 1.3-3.1 2.8-3.1 3.3-.1.5-.2 1.3-.3 1.8 0 .5-1.5 1.4-3.1 2-2.9 1-6 3.3-6 4.5 0 .3.9.6 2 .6 3.4 0 6.9 2.1 6.3 3.9-1.2 3.1-4.2 5.3-6.5 4.5-2.8-.9-4.6-2.6-4.1-4 .2-.7-.3-1.4-1.2-1.7-1.7-.7-2.2 2.8-.5 3.8.7.4.5 1.4-.5 2.8-2 2.9-1.9 3.2 1 3.5 1.3.1 3-.6 3.7-1.6 1.7-2.2 5.3-2.3 6.7-.1.8 1.4.7 2.1-.2 3.1-2.8 2.8-2.8 4.7.1 5.4 4.5 1.1 5.8 4.4 1.7 4.4-1.4 0-2.5.4-2.5 1 0 .5.4 1 .8 1 .5 0 1.7.7 2.8 1.6 1 .8 1.4 1.3.8 1-1.7-.8-3.2 1.4-3.2 4.7.1 2.8-4.6 8.2-6.1 7.2-.5-.2-1.9.7-3.2 2.1-2 2.1-2.1 2.8-1.1 4.5.7 1 .9 3 .6 4.4-.7 2.7-5.2 6.5-7.8 6.5-.8 0-2.7.5-4.1 1.2-3 1.3-3.4 4.8-.6 4.8 1 0 2.1.7 2.5 1.5.3.8 1.2 1.5 2.1 1.5.9 0 1.5.9 1.5 2.5 0 1.8-.5 2.5-1.9 2.5-1.6 0-1.9.7-1.7 4.7.1 2.7.7 5.7 1.4 6.9 2 3.8-2.7 6.1-5.4 2.6-1.3-1.6-1.6-1.5-4 1.2-1.8 2-2.2 3.2-1.5 3.9.6.6 1.1 1.9 1.1 2.8 0 .9 1.1 2.7 2.5 4 1.3 1.3 2.5 3 2.5 3.6 0 2-4.5 1.5-6.5-.7-2.1-2.3-3.4-2.5-6.8-.7-1.9 1-2.3 1.7-1.5 3 .9 1.8 4.8 2.4 4.8.8 0-1.1 5.9.4 7.3 1.8 1 1 1.6 7 .8 7.2-5.5.9-8.8.5-10.7-1.3-1.4-1.2-2-2.7-1.6-4 .3-1.5.1-1.9-.9-1.6-1.6.6-1.5 6.1.1 6.6 2.1.7 7 5.4 7 6.7 0 1.2-3.7 2.5-8.5 3-1.1.2-3.5-.4-5.4-1.1-3.9-1.6-4.4-1.7-3.7-.5.8 1.3-5.3 2-6.3.7-.4-.6-1.1-2.4-1.5-4.1-.4-1.6-1.2-3.6-1.8-4.2-1.2-1.5-6.2-1.8-5.3-.3.3.5.1 1-.5 1s-.8.4-.5 1c1.1 1.8-2.5 1-6.3-1.4-2-1.3-9.5-8-16.7-14.8-7.1-6.8-17-15.9-22-20.2-17.3-15.2-50-45.2-65-59.8-3.3-3.2-7.4-6.8-9.1-8.1-1.8-1.2-8.9-7.7-15.8-14.3-6.9-6.7-14.3-13.4-16.3-15-2.1-1.5-8.1-6.9-13.3-11.8-15.4-14.6-30.1-28-36.5-33.4-8-6.6-13.6-12.1-22-21.7-3.8-4.4-9.1-10-11.7-12.4-2.7-2.4-4.8-5-4.8-5.7 0-.8 2.4-2 5.8-2.9 3.1-.9 9.5-2.7 14.2-4 4.7-1.4 12.1-3.4 16.5-4.5s10.5-2.6 13.5-3.5c3-.8 6.4-1.5 7.5-1.5 1.2 0 2.5-.4 3.1-.9 1.2-1.1 28.6-9.9 33.4-10.7.8-.2 3.1-.8 5-1.3 1.9-.6 7.3-2.1 12-3.4 10.9-3.1 24.4-7.1 34.5-10.2 9.3-2.8 12.8-3.8 37-10.6 9.9-2.8 22.2-6.2 27.3-7.5 5.1-1.3 10.8-3 12.7-3.8 1.8-.8 7.1-2.4 11.8-3.5 4.6-1.2 11.9-3.3 16.3-4.7 7.9-2.5 13.2-3.5 20.9-3.8 2.4 0 5.2-1 7-2.3 3.4-2.6 6.7-2.9 8.4-.9zM56.5 289.6c1.4.9 2.5 1.2 2.5.8.1-.5.7.6 1.6 2.5.8 1.9 1.3 3.5 1.2 3.6-1.7 1.4-4.8 2.4-4.8 1.6 0-.6-.7-.8-1.5-.5-.8.3-3.4-.6-5.8-2.2-3.2-2-4.3-3.2-3.9-4.6.5-2.1 2.4-2.3 5.4-.7 1.8 1 2 .9 1.5-.5-.8-2 .7-2 3.8 0zm695.1 31.9c1.4 1.3 1.3 1.5-1 1.5-2.5 0-4.1-1.2-2.9-2.4 1-1 2.3-.7 3.9.9zm9.2 53.3c.4 2.5-2.5 3.1-4.6 1-1.7-1.7-1.5-2.6.6-3.1 2.7-.7 3.7-.2 4 2.1zm-4.7 14.9c0 .5.2 1.9.5 3.2.4 2 .2 2.2-1.1 1.1-1.2-1-1.7-.9-3 .3-.8.9-1.5 2.2-1.5 2.9 0 1-.3.9-1-.2s-.3-2 1.5-3.3c1.4-1 2.5-2.5 2.5-3.3 0-1.4 1.9-2 2.1-.7zm-266.3 34c6.9 6.5 16.9 15.8 22.2 20.8 5.2 4.9 13.1 12.1 17.4 16 4.3 3.8 9.9 9 12.5 11.5 2.6 2.5 6.7 6.3 9.2 8.5 11.6 10.2 36.7 33.1 60.2 55 14.2 13.2 27.9 25.6 30.5 27.6 2.6 2 7.3 6.5 10.5 10 6.7 7.4 5.6 6.3 17.3 17.6 5 4.8 10.8 10.7 12.7 13.1l3.6 4.2-2.6 2.6c-1.4 1.4-3.1 2.3-3.9 2-.8-.3-1.4.1-1.4.8 0 .9-.7 1.2-2 .9-1.5-.4-2 0-2 1.5 0 1.1-.8 2.2-2 2.5-1.2.3-2 1.4-2 2.6 0 1.4-.8 2.3-2.5 2.7-2.7.7-3 1.6-1.6 4.3.5.9.6 2.3.2 3-1 1.6-6.2 2-8.1.6-.8-.7-2.3-1.5-3.2-1.8-1.5-.5-1.8-.1-1.8 2.3 0 1.7.5 3 1 3 .6 0 1 .7 1 1.6 0 1-.6 1.4-1.4 1.1-.9-.4-1.7.2-2.1 1.4-.4 1-1.1 1.9-1.6 1.9-.6 0-.7.6-.3 1.2.6 1 .4 1-.7.2-2-1.6-4.8-1.4-4.2.3.3.7.9 1.3 1.5 1.3 1.1 0-2.1 3.4-3.4 3.6-.4.1-1.1.3-1.5.4-.5.1-1.2.2-1.7.1s-.5.8-.1 2.1c1.1 3.8 1.1 6.3-.2 6.4-.7.1-1.5.2-1.8.3-.3 0-.8.1-1.2 0-.3 0-1 .6-1.5 1.4-.6 1.2-1.6 1.3-4.9.6-2.2-.5-4.5-.6-5.1-.3-.7.4-.8.2-.4-.4.5-.8-.2-1.2-1.8-1.2-1.8 0-2.4.4-2 1.5.4 1.1 0 1.5-1.6 1.5-1.2 0-2-.5-1.8-1.2.5-1.3-2.1-4.8-3.4-4.8-.5 0-.8 1.1-.8 2.5s.5 2.5 1.1 2.5c.5 0 .7.5.3 1.2-.5.8-.2.9.9.5.9-.3 1.9-.2 2.2.4.4.5 1.1.6 1.7.3.6-.4.8-.2.5.3-.4.6 0 1.6.8 2.3 2 1.6 4.6 7 3.4 7-.5 0-.9-.5-.9-1.1 0-.7-1.1 0-2.6 1.6-2.5 2.7-2.5 2.7-4.7.9-1.2-1.1-2.7-2.6-3.4-3.4-1.9-2.4-3.8 3.6-2.4 7.6 1.5 4.2 1.5 4.2-2 4.6-1.9.2-3.7 1.1-4.3 2.2-.6 1.1-1.9 2.9-2.8 3.9-1 1.1-1.6 2.3-1.4 2.6.2.3-1.6.7-4.1.9-3.6.2-4.8-.2-6.3-2-1.1-1.3-1.9-1.7-2-1.1 0 .7.5 1.3 1 1.3 1.9 0 1 4.5-1.1 5.9-1.8 1.1-2.3 1.1-3-.1-.7-1-.9-.8-.9.7-.1 3.8-1.6 5-4.6 3.7-2.8-1.3-3.4-1.2-3.8 1-.3 2.4-1.7 3.8-3.8 3.8-1.2 0-1.8.3-1.5.7 1.3 1.2-2.8 3.1-5.5 2.6-3.7-.7-6.3 1.3-4.6 3.5.8 1 .8 1.3.2.9-.7-.4-1.4.2-1.7 1.3-.6 2.3-4.5 2.7-5.3.6-.7-1.9-4.5-2.8-6-1.5-.8.6-1 2.3-.7 4.3.6 3.7-.7 5.2-3.4 3.8-1-.5-2.7-.6-3.8-.2-1.2.4-3.4.2-5.3-.6-3.1-1.3-3.4-1.2-3.9.6-.3 1.1-1.1 2-1.9 2-.7 0-1.7.7-2.2 1.6-.6 1.1-1.7 1.5-3.1 1.1-1.1-.3-2.1-.1-2.1.3 0 1.2-2.5.6-4.4-1-1.3-1-2-1-2.8-.2-.9.9-.8 1.2.3 1.2 1.8 0 2.2 3.8.6 5.4-1.8 1.6-5.1 1.7-6 0-1-1.7-5.3-1.9-6-.2-.3.8-.6.7-.6-.4-.1-.9-.5-1.9-1-2.2-.5-.4-.7.4-.3 1.6.3 1.4.1 1.9-.6 1.4-.8-.4-1-.2-.6.8s-.6 2-3.1 3c-2.1.9-4 1.4-4.4 1.1-.4-.2-2-.6-3.5-.9-2.3-.4-2.6-.2-2.1 1.5.6 1.9-.2 2.4-3.3 2-.8-.1-2.7-1.6-4.3-3.2-3.3-3.4-5.1-3.1-4.3.9.5 2.3 0 3-2.8 4.7-1.8 1.1-3.7 1.9-4.3 1.9-2.9-.1-9.4-2.6-9.8-3.7-.3-.9-1.5-.8-5.1.4-2.5.9-4.9 1.3-5.1.9-.3-.5-1.9-.5-3.6 0-2.3.7-3.7.5-5.3-.5-1.1-.8-1.8-1.5-1.4-1.5.3 0-.6-1.3-2-3-2.5-2.9-2.7-2.9-4.7-1.2-2.6 2.3-6.2 4.9-5.3 3.8.9-1.1-1.9-3.9-3.2-3.1-.5.3-.8 0-.5-.7.3-.7 0-2-.5-2.8-.8-1.3-1.5-1.2-4.9.6-2.3 1.3-4.3 1.8-4.8 1.3s-2.4-1.3-4.1-1.8c-2.5-.8-3.2-.7-3.3.5-.1.8-.3 1.8-.4 2.4-.1.5-.3 1.6-.4 2.4 0 .7-1 1.6-2.1 1.9-1.1.3-1.8.1-1.4-.4.3-.5 0-1-.5-1-1.6-.2-2.3-.4-5.5-1.8-2.8-1.1-2.9-1.3-2.3-7 .4-3.3 1.5-8.1 2.5-10.7 1.1-2.7 2.2-6.8 2.6-9.1.6-4.3 8-32.4 14.3-54.3 2-6.9 4.8-17.7 6.4-24 3.1-12.7 5.2-20.9 7.4-28.5.7-2.8 2.3-8.6 3.4-13s3.1-12.5 4.5-18c5.5-21.6 8.9-35.2 9.6-39 .5-2.2 4.3-17.1 8.5-33 4.2-16 8-31 8.5-33.5 1.5-7.2 4-14.8 8.6-26.5 4.3-10.9 7.4-21.3 7.4-24.7 0-3.7 3.5-1.5 15.8 9.9zM423 481.9c0 .5-1.1 4.6-2.4 9.2-1.3 4.6-2.6 9.5-2.9 10.9-.3 1.4-1.6 6.8-3 12-10.5 38.8-29.4 111.1-33.3 127.5-7.5 31-13.8 55.7-15.4 61-1.1 3.3-2.4 8.6-3 11.7-.6 3.1-1.9 6.7-2.9 8-1 1.3-2.1 4.9-2.4 8.2-.4 4-1.2 6.6-2.6 7.9l-2 2-1.3-2.9c-1.5-3.3-5.2-7.4-6.7-7.4-.5 0-1.2.9-1.6 1.9-.5 1.8-9.5 6.1-12.6 6.1-.5 0-2 1.2-3.3 2.7-3.3 3.8-4.8 2.3-4-3.8.5-4 .4-4.8-.8-4.4-.7.3-2 2.4-2.8 4.8-1.7 4.6-4.1 5.8-6.9 3.3-1.6-1.5-2-1.5-3.1-.1-.7.8-1.6 1.2-2.2.9-.5-.3-1.6 0-2.4.7-1.2 1-1.3.9-.8-.5.3-.9.1-1.6-.5-1.6s-1.1-.9-1.1-2c0-1.5-.9-2.2-3.1-2.7-1.9-.3-3.5-1.5-4.1-2.9-1.3-2.7-4.3-3.1-6.8-.9s-11.3.5-14.9-2.9c-1.5-1.4-3-2.4-3.3-2.1-.3.4-2.1 0-3.9-.8-1.9-.7-3.9-1.2-4.6-1-1.2.4-6.2-2.4-7.5-4.1-.4-.6-3.5-1.1-7-1.1-5.8-.1-13.1-2.4-14.9-4.8-.3-.4-1.6-.9-2.9-1-1.2-.1-2.9-1.2-3.7-2.4-.8-1.3-1.9-2-2.4-1.7-.8.5-1.3-.9-.6-2.1.1-.2-.8-1.2-2-2-1.8-1.3-2.7-1.3-4.4-.5-3.2 1.8-8.9.4-8.9-2.1 0-1.1.7-2.7 1.5-3.5 1.8-1.9 2-5.4.2-5.4-.7 0-1.8.5-2.5 1.2s-1.2.8-1.2.4c0-.5-1.3.5-3 2.2-2.5 2.6-3 2.9-3 1.3 0-2.1-2.3-4.4-3.3-3.4-.4.3-.7.1-.7-.5s-1-1.6-2.1-2.3c-1.5-.8-1.9-.8-1.5 0 .4.7-.1 1.1-1.3 1.1s-2.1-.7-2.1-1.5-.7-1.5-1.5-1.5c-.9 0-1.5-.9-1.5-2.5s-.6-2.5-1.5-2.5c-.8 0-1.5-.4-1.5-.9 0-1-4.1-.7-7.7.4-3.3 1.1-3.9-1.8-1.4-6.1 2.1-3.6 2.1-3.6.2-3.1-2.7.7-5.1-2-3-3.4 1-.6 1-.9.1-.9-.6 0-1.1-.5-1-1.1.2-.6-.3-1.4-1.1-1.7-1-.3-1.2 0-.7 1.3.5 1.4.4 1.6-.7.6-1.1-.9-1.7-.8-2.7.4-.7.8-2.2 1.5-3.4 1.4-1.1 0-1.5-.3-.8-.6.6-.2 1-.8.7-1.3-.3-.5.5-1.2 1.7-1.6 1.3-.4 2.4-.5 2.5-.3.1.2 1.2-.6 2.6-1.9 3.3-3.1 3.3-7.1 0-6.9-1.3.1-2.8.9-3.3 1.7-.9 1.3-1 1.3-1.1 0-.1-.8-.1-1.8 0-2.2 0-.4-.5-.5-1.3-.2s-1.7.1-2.1-.5c-.3-.6-1.3-1.1-2.1-1.1-.9 0-1.2.5-.8 1.2.4.7.3.8-.4.4-.6-.4-.9-1.3-.5-2.1.6-1.8 1.5-1.9 2.9-.5.8.8 1.1 0 1.2-2.4.1-1.9-.3-3.8-.8-4.1-.6-.3-1 0-1 .7 0 1-.3.9-1-.2-.6-.9-.5-1.7.3-2.2.9-.6.9-.8 0-.8-.7 0-1.3-.9-1.3-2.1 0-1.1.4-1.8.9-1.5.5.4.4-.5-.2-1.9-1.2-2.6-3.1-3.2-4.2-1.5-.4.6-.1 1.7.5 2.5.9 1.1.9 2.1-.2 4.3-1 2-1.2 3.6-.5 5.5.6 1.9.5 3.2-.4 4.3-2 2.4-5.1 1.3-6.4-2.4-1.1-3.5-3.8-5.8-5.4-4.7-.5.3-1.7-.5-2.5-1.7-1.7-2.4-2.2-6.3-.7-5.4.9.6 2.4-3.5 1.6-4.3-.3-.2-.5.1-.5.7s-.7.9-1.5.6c-.8-.4-1.6-.1-1.6.5-.1.6-.3 1.5-.4 2.1-.1.5-.3 1.6-.4 2.4-.1 1.8-6.1 3.2-7 1.7-1.3-2 .2-10.3 2.2-12.9.8-1 .3-1.9-1.9-3.7-3.5-2.9-3.8-2.9-5.4-1-.7.8-1.9 1.5-2.7 1.5-2.1 0-9.2-7-8.6-8.5.2-.8-.4-1.9-1.5-2.6-1.6-1-1.8-1.7-1.1-3.1.8-1.4.2-2.1-3.6-3.8-4.7-2.2-6.7-4.7-4.6-5.9.6-.4 1-1.8.9-3.2-.2-1.8.2-2.5 2-2.7 2.6-.4 2.9 1 .6 3.2-1.4 1.5-1.4 1.7.1 2.2 2.2.9 4.7-1.8 4.9-5.3.1-1.5.7-3.7 1.3-4.8 1-1.7 1.5-1.8 3.3-.7 1.5.9 2.5 1 3.4.3.7-.6 1.5-1 1.7-.8.2.1-.1-.3-.7-.8-2.4-2.2-4.6-7.7-3.5-8.8.6-.6 1.1-1.4 1.1-1.8 0-1.2-3.4-.3-3.8.9-.2.7-.8 1-1.3.6-.9-.5-2.7 3.1-3.5 7-.8 4.1-2.4 4.2-5.5.6-1.6-1.9-2.9-3.7-2.9-4.1 0-1-5.7-2.9-6.4-2.2-.3.4-.6.1-.6-.6s-.5-.9-1.2-.5-.8.3-.4-.5c.4-.6 1.1-.9 1.6-.6 1.1.7 3.3-2.2 2.5-3.5-1-1.6-2.4-1.2-6.5 2.1-3.2 2.6-4.2 3-5.4 2-.8-.7-1.4-2-1.4-2.9 0-.9-.3-2.5-.7-3.4-.5-1.3.1-2 2.7-3.1 3.1-1.3 3.4-1.2 5.5 1 1.2 1.2 2.4 2.3 2.6 2.3 1.2 0 1.5-4.5.4-5.2-1.8-1.2-2.9-.9-2.1.4.5.8.1.7-1-.2-1.7-1.3-1.7-1.5.3-3.2 1.2-.9 4.3-2 6.9-2.4 2.6-.3 5.2-.9 5.7-1.3.6-.3 3.7-1.3 7-2.2 3.3-.9 11.4-3.1 18-4.9 6.6-1.8 14.5-3.8 17.6-4.5 3-.7 6.4-1.7 7.5-2.3 1.1-.6 5.1-1.7 8.9-2.6 3.9-.8 12-2.9 18-4.6 6.1-1.6 18.7-5 28-7.4 9.4-2.4 21.1-5.5 26-6.9 5-1.4 13.3-3.7 18.5-5 5.2-1.4 14.9-4 21.5-5.7 6.6-1.8 12.9-3.4 14-3.6 1.1-.1 4.5-1 7.5-1.8 10.4-2.8 25.5-6.8 30.8-8.2 2.8-.7 7.6-2 10.5-2.8 14.9-4 33.5-8.9 35.7-9.3 1.4-.3 6.1-1.5 10.5-2.8 8.3-2.3 15.3-4.2 26.5-7 3.6-.9 7.6-2.3 9-3 2.8-1.6 6-1.9 6-.6zM46 489c0 .5-.5 1-1.1 1-.5 0-.7-.5-.4-1 .3-.6.8-1 1.1-1 .2 0 .4.4.4 1zm9 16.4c0 .2-.8 1-1.7 1.7-1.6 1.3-1.7 1.2-.4-.4 1.3-1.6 2.1-2.1 2.1-1.3zM733 518c0 .5-.2 1-.4 1-.3 0-.8-.5-1.1-1-.3-.6-.1-1 .4-1 .6 0 1.1.4 1.1 1zm-674.5 4c-.3.5-1.2 1-1.8 1-.7 0-.6-.4.3-1 1.9-1.2 2.3-1.2 1.5 0zm-1.2 3.7c-.7.2-1.9.2-2.5 0-.7-.3-.2-.5 1.2-.5s1.9.2 1.3.5zm7.4 10.6c-.2.7-1.1 1.3-2 1.5-1.2.3-1.7-.4-1.7-2.3 0-2.3.2-2.5 2.1-1.5 1.1.6 1.8 1.7 1.6 2.3zm17.6-.4c.4.1.7.7.7 1.5 0 2.3-9.2 3.7-10.5 1.6-.3-.6.3-1 1.3-1 1.1 0 2.5-.6 3.1-1.4.7-.8 2-1.3 2.9-1.1.9.2 2 .4 2.5.4zm618 30.5c.8-.9 6.7 6.7 6.7 8.6 0 3.1-2 2.4-8.8-3-7.4-6.1-8.3-8.7-2.3-6.5 2.2.7 4.1 1.1 4.4.9zM97.5 596.8c2 1.4 1.4 2.9-1 2.4-1.4-.2-2.5-1.1-2.5-1.8 0-1.5 1.9-1.8 3.5-.6zm64 67.2c.3.5.1 1-.4 1-.6 0-1.1-.5-1.1-1 0-.6.2-1 .4-1 .3 0 .8.4 1.1 1z"/><path d="M355.8 38.6c-1.5 1.5-1.5 1.8.2 3.6 1 1.1 2.3 1.7 2.8 1.4.5-.3 1.2.4 1.5 1.5.6 2.4 3 2.1 3.5-.4.2-1.1-.6-1.9-2.2-2.3-1.4-.3-2.4-1-2.1-1.4.6-1-.4-4-1.4-4-.4 0-1.4.7-2.3 1.6zM274.8 65.7c-1.7.4-1.9.9-2.2 4.3-.1.8-.9 1.4-1.9 1.4-1.7-.2-2.3 1.1-.9 1.9 1.2.7 8.9-5.7 8.4-7.1-.4-1.2-.5-1.3-3.4-.5zM230.8 74c-2.1 1.1-3.8 1.8-3.8 1.5 0-.2-1.2 0-2.6.5-1.4.6-2.3.6-2 .1.3-.5 0-1.1-.7-1.4-.9-.3-1.3.7-1.3 3.4-.1 2.9.3 3.9 1.4 3.9.8 0 2 .7 2.6 1.5 1 1.4 1.5 1.3 4.9-.4 2.1-1.1 4.5-1.7 5.3-1.4.8.3 1.4.1 1.5-.3.4-4.2.6-6.1 1-7.3.6-2.3-2.2-2.3-6.3-.1zM249 84.3c-1.1 2.3-2.2 3.1-4.2 3.2-1.6 0-2.8-.3-2.8-.7 0-1.7-1.8-.7-2.3 1.3-.5 1.7-1.1 2-3.1 1.5-1.5-.4-2.6-.1-2.9.7-.3.8-1 .7-2.6-.7-2.3-2.1-2.3-2.1-4 1.2l-1.2 2.3-2-2.5c-2.3-3-4.1-3.3-6.3-1-2.8 2.7-2 5 1.7 5.2 5.4.2 7.6.6 7.1 1.3-.2.4 1.5.5 3.8.3s4.6-1 5-1.8c.6-1 2.5-1.4 7-1.2 3.5.2 7.2-.2 8.6-1 1.4-.7 3-1 3.7-.8.7.3 1.5-.6 1.8-2.2.4-2 0-2.8-1.4-3.1-1.1-.3-2.5-1.6-3.2-2.8l-1.2-2.3-1.5 3.1zM206.6 97.8c-.3.5.1.9.9.9s1.2-.4.9-.9c-.3-.4-.7-.8-.9-.8-.2 0-.6.4-.9.8zM247 98.8c0 1.5 2.2 3 3.6 2.5 1.1-.4 1.2-.9.3-1.9-1.2-1.5-3.9-1.9-3.9-.6zM226.7 101c-.4 1.4.3 2.6 2.4 4.1 1.6 1.1 2.6 2.5 2.3 3.1-.4.7-.2.8.4.4 2.6-1.6.2-9.6-2.8-9.6-1 0-2 .9-2.3 2zM190.5 119c-.3.5-.4 1-.1 1 .3 0 .1 1.1-.4 2.4-.7 1.8-.5 2.8.9 4 1.9 1.8 8.6 2.2 9.6.6 1-1.7-2.4-2.3-4.3-.9-1.6 1.3-1.6 1.2-.2-.5 1.3-1.7 1.2-2-1.2-4.1-1.5-1.3-2.4-2.6-2.1-2.9.4-.3.1-.6-.5-.6s-1.4.4-1.7 1zM186.7 132.7c-.4.3-.7 1.5-.7 2.6 0 1.9.1 1.9 2 .2 1.1-1 1.7-2.2 1.4-2.6-.6-1.1-1.8-1.2-2.7-.2zM350.7 134.8c-1 .2-1.6.9-1.4 1.5.6 1.8 3.4 2 4 .3.7-1.8-.1-2.4-2.6-1.8zM138 151c.8.5 2 1 2.5 1 .6 0 .3-.5-.5-1s-1.9-1-2.5-1c-.5 0-.3.5.5 1zM122 166c2 1.3 3.3 1.3 2.5 0-.3-.6-1.4-1-2.3-1-1.5 0-1.5.2-.2 1zM501.1 49.8c-.6 1.1-.9 2.1-.8 2.3.1.2-.4-.3-1.2-1.1-1.2-1.3-1.3-1.3-.6.5.4 1.1.8 3.1.9 4.4.1 1.8.9 2.7 2.9 3.2 1.6.4 3.5.5 4.3.2.8-.3 1.4.1 1.4 1.1 0 2 2.6 2.1 3.4.1.3-.8 1.4-1.5 2.5-1.5s2.2-.4 2.6-.9c.6-1.1-3.5-4.2-4.7-3.5-.4.3-.8.1-.8-.5s-.6-.8-1.3-.5c-.8.3-2-.2-2.7-1-.7-.9-1.7-1.3-2.2-1-.5.3-.8-.2-.6-1.1.4-2.5-1.9-3-3.1-.7zM476 52.7c0 .5.7 1.8 1.5 2.9 1.3 1.8 1.4 1.8.8-.4-.5-2.2-2.3-4.1-2.3-2.5zM486.3 55.7c-.7.2-1.3 1.4-1.3 2.5 0 1.4.5 1.8 1.5 1.4.8-.3 1.5-.2 1.5.2 0 .5 1 1.8 2.1 3.1 2.6 2.8 4.2 1.6 4.1-3-.1-4.3-3.4-6.1-7.9-4.2zM445 65.1c0 .5.5.7 1 .4.6-.3 1-.8 1-1.1 0-.2-.4-.4-1-.4-.5 0-1 .5-1 1.1zM493.6 65.7c-.9 2.3 1.7 4.6 5.4 4.7 2.6.1 3.2.6 3.7 2.8.3 1.5 1.4 3 2.4 3.3 1 .3 2.1 1.4 2.4 2.4.4 1.2 1.2 1.7 2.4 1.4 1.1-.3 2.7.4 3.7 1.5 1.7 1.9 2.1 1.9 3.9.5 1.2-.9 1.6-1.7.9-2-.8-.2-.9-1.5-.4-3.7.6-2.9.5-3.3-1.1-2.9-1 .3-1.7.9-1.4 1.3.2.4-.7.5-2 .2-1.3-.2-2.7-1.2-3-2.2-.3-1-1.3-2.4-2.2-3.2-1.4-1.1-1.6-1.1-1 .4.4 1.2.1 1.6-1.4 1.5-1-.1-2.2-1-2.5-2-.4-1.3-1.2-1.7-2.5-1.4-1.8.5-2.3-.3-2-3.1.3-1.8-4.6-1.5-5.3.5zM488.6 70.6c-.5 1.4.9 5.4 1.9 5.4.2 0 .4-1.6.3-3.5-.1-3.7-1.2-4.6-2.2-1.9zM543.5 80.6c-1 .8-2.7 1.2-3.7.8-1-.3-1.8-.1-1.8.5s1.2 1.2 2.8 1.2c1.5.1 3.9.3 5.5.5 3.1.3 3.7-1.5.9-3.2-1.4-.9-2.2-.8-3.7.2zM503.7 83.7c-.3.5.1 1.7.9 2.8 1.4 1.8 1.4 1.8 1.4-.2 0-2.3-1.5-3.9-2.3-2.6zM617 137.9c0 1.1 2.6 2.2 3.4 1.4.3-.3.3-1 0-1.4-.7-1.2-3.4-1.1-3.4 0zM641.5 161.4c-1.2.8-2 2.7-2 4.8-.1 3.2 0 3.4 2.7 3 1.5-.2 2.8-.8 2.8-1.3 0-.6.9-.5 2.1.2 1.3.6 2.5.7 3 .2 1-1 .5-1.1-4.7-1.4-1.5-.1-2.1-.5-1.5-.9.7-.3 1.4-1.9 1.7-3.3.5-3.1-1.1-3.5-4.1-1.3zM691.6 206.8c-.3.6-.1 1.4.5 1.7 1.4.9 2 .2 1-1.4-.6-.8-1.1-.9-1.5-.3zM564.3 245.2c0 .7-.3 2.3-.7 3.5-.6 1.8-.3 2.3.9 2.3 1.1 0 1.5-.5 1.2-1.4-.3-.8-.1-1.6.4-1.8.6-.2.7-1.1.4-2.1-.8-2-2.2-2.3-2.2-.5zM73 249.2c0 1.4 3 2.2 4.1 1.1.7-.7.2-1.2-1.5-1.5-1.4-.3-2.6-.1-2.6.4zM92.4 255.8c.3.5-1.7.7-4.5.4-4.2-.4-4.9-.2-4.3 1.2.3.9 1 1.4 1.4 1.1.4-.3.7.3.6 1.3-.1 2.1-2.2 3.6-3.8 2.6-.6-.4-.8-.3-.5.3.8 1.2 5.7 1.4 5.7.3 0-.5 1-.6 2.2-.2 1.2.3 1.9.1 1.5-.4-.3-.6.3-1.5 1.4-2.2 2.1-1.4 2.2-1.3 3.4 4.1.7 3.6 4.1 3.4 3.7-.3-.3-2.6-4.7-9-6.3-9-.6 0-.8.4-.5.8zM85.9 269.6c1.7 1.4 3.6 2.4 4.3 2.2.6-.2-.5-1.4-2.6-2.6-4.9-2.9-5.4-2.8-1.7.4zM158 433c0 .5.5 1 1.1 1 .5 0 .7-.5.4-1-.3-.6-.8-1-1.1-1-.2 0-.4.4-.4 1zM51.7 442.7c.3 1 1 2.3 1.5 2.9.5.7.2 1.6-.7 2.4-1.8 1.5-2 3.3-.2 2.7.6-.2 1.2-1 1.2-1.7 0-2.1 2.3-2.3 2.7-.3.3 1 .1 2.9-.4 4.1-1.1 3-.5 3.8 3.2 4.5 4 .9 5.6.1 7.8-3.7l1.9-3.2-4.4-2.4c-2.4-1.3-5.1-2.3-5.9-2.3-.7 0-1.4-.4-1.4-.8 0-1.3-3.1-3.9-4.5-3.9-.9 0-1.2.6-.8 1.7zM48 457.5c0 .8.2 1.5.4 1.5s.6-.7 1-1.5c.3-.8.1-1.5-.4-1.5-.6 0-1 .7-1 1.5zM51.8 462.7c.7.3 1.6.2 1.9-.1.4-.3-.2-.6-1.3-.5-1.1 0-1.4.3-.6.6zM53.6 481.6c-.8 2.2-.4 2.5 1.1.9.7-.8.9-1.6.4-1.9-.5-.3-1.2.1-1.5 1zM64.6 501.5c.4.8 1 1.2 1.5.9 1.4-.8 1-2.4-.6-2.4-.9 0-1.2.6-.9 1.5zM720.7 280.4c.3 1.6-.2 3.1-1.6 4.5-1.2 1.2-1.8 2.9-1.6 4.3.3 1.2-.1 2.5-.7 2.9-.9.6-.8 1.2.3 2.5 1.2 1.6 1.2 1.7-.1.9-1.2-.7-1.3-.6-.2.7 1.8 2.2 1.2 6.7-.8 6-1.3-.5-1.3-.3-.1 1.1 1.1 1.4 1.2 2.3.2 4.3-.9 2-.8 2.8.3 3.9.8.8 1.2 2.3.9 3.4-.3 1.3.2 2.3 1.6 3 1.7.9 2.2.8 3.1-.9.6-1.1 1.7-2 2.5-2 .9 0 1.2-.6.9-1.5-.4-.8-1-1.2-1.5-.9-1.4.8-2.8-3.9-1.7-5.4.6-.6.7-1.2.2-1.2-.5 0-.1-.5.9-1.1 2.3-1.3 2.2-3.3-.2-2.6-1.5.4-1.8 0-1.7-1.8.2-1.2.6-2.7 1-3.3.3-.5 0-1.3-.6-1.6-.9-.3-.8-.9.6-2 2.5-2 1.4-5-1.7-4.3-2.1.6-2.1.6-.3-.8 1.1-.8 2.4-1.5 2.9-1.5 1.2 0 3.7-2.6 3.7-3.9 0-1.8-3.3-5.1-5.1-5.1-1.2 0-1.5.7-1.2 2.4zM732.5 286c-.3.5-.1 1 .6 1 1.8 0 .4 1.1-1.8 1.4-2.1.3-3 4.1-1.3 6.1.6.8 1 2.4.8 3.7-.2 1.5.2 2.2 1.1 2 1.9-.4 5.2.8 4.7 1.7-.3.4.2.8 1 .8 1.2 0 1.4-.9 1-4.1-1-6.3-1-8-.1-9.9.9-2.1.8-2.2-2.7-3.1-1.5-.3-3-.2-3.3.4zM709 289c-.8 1.2-2.2 1.9-3.2 1.7-1.1-.3-1.5 0-1.1.9.8 2.2 6 1.7 8.2-.8 1.1-1.1 1.8-2.5 1.5-3-.9-1.5-3.9-.8-5.4 1.2zM708.1 309.3c-.6.8-.8 1.7-.4 2 .7.8 3.3-1.1 3.3-2.4 0-1.3-1.6-1.1-2.9.4zM733.4 340.9c.9 1.6 1.2 3.2.8 3.6-.4.4.2.5 1.3.3 2.4-.4 2.2-3.6-.3-5.6-2.6-2-3.3-1.4-1.8 1.7zM576.5 352.3c-1.6 1.3-1.6 1.4-.1 2 1 .4 1.9.1 2.3-.9.8-2.1-.1-2.6-2.2-1.1zM651.5 354.1c-1 1.5 0 2.1 2.7 1.7l2.3-.3-2.2-1.3c-1.5-.8-2.4-.9-2.8-.1zM730 374.9c0 1.7 1.8 2.1 2.4.6.3-.9 0-1.5-.9-1.5-.8 0-1.5.4-1.5.9zM736.7 378c-1.4 1.1-3.1 1.9-3.8 1.8-1.9-.4-2.3 2.8-.4 3.5.9.4 1.5.1 1.5-.8 0-.8.8-1.5 1.8-1.5 2.5-.1 5.2-2.4 4.3-3.8-.6-.9-1.4-.7-3.4.8zM746.7 425.2c-1.6.9-3.6 1.4-5.8 1.7-.4.1-.9 1-1.2 2.1-.3 1.3 0 2 .9 2 .8 0 1.4-.4 1.4-.9 0-.4 1.7-.8 3.7-.7 2.9.1 3.8-.3 4.1-1.8.5-2.5-.9-3.7-3.1-2.4zM683.5 513c-.3.6.1.7.9.4 1.8-.7 2.1-1.4.7-1.4-.6 0-1.3.4-1.6 1zM716.4 518.3c.8 1.2 1.5 2.4 1.4 2.7-.1.3.6 1.8 1.4 3.4 1 1.9 1.7 2.5 2.3 1.7.4-.7-.1-2.1-1.2-3.3-1-1.1-1.7-2.2-1.6-2.4.5-.9-.9-3.3-2.3-3.8-1.2-.5-1.2-.2 0 1.7zM649 592.3c0 .7.7 2.2 1.5 3.3 1.2 1.6 1.4 1.7 1.5.2 0-2.3-1.1-4.8-2.1-4.8-.5 0-.9.6-.9 1.3zM656.5 595.9c-.2.5.4 1.1 1.5 1.4 1.1.3 2 .2 2-.3 0-1.2-2.8-2.1-3.5-1.1zM479.5 635c.3.5.8 1 1.1 1 .2 0 .4-.5.4-1 0-.6-.5-1-1.1-1-.5 0-.7.4-.4 1zM623.2 643.7c.4 2.4 2.3 2.7 2.5.3.1-1.2-.4-2-1.3-2s-1.4.7-1.2 1.7zM632.6 645.8c-.3.6.1 1.5.8 2.1.8.7 1.7.8 2 .3.3-.6-.1-1.5-.8-2.1-.8-.7-1.7-.8-2-.3zM553.5 693.9c-.3.5-.1 1.2.5 1.6.5.3 1-.1 1-.9 0-1.8-.6-2.1-1.5-.7zM563.5 698c.3.5 1.5 1 2.6 1s1.7-.5 1.4-1c-.3-.6-1.5-1-2.6-1s-1.7.4-1.4 1zM541.6 702.9c-.5.8-.2 2 .8 2.9 1.7 1.7 1.9.9.7-2.2-.6-1.5-1-1.6-1.5-.7zM467 733.4c0 .8.4 1.7.8 2 .4.2.8-.4.8-1.5 0-1-.4-1.9-.8-1.9s-.8.6-.8 1.4zM98 572.3c0 1.9 3.6 5 4.9 4.3.5-.3 1.7.1 2.5 1 .9.8 1.6 1.1 1.6.5 0-1.5-6.1-7-7.7-7.1-.7 0-1.3.6-1.3 1.3zM123 590.4c0 1.4-.4 2.8-1 3.1-1.5.9-1.2 3.5.3 2.9 2-.7 3.7 1.8 3.4 5.1-.2 2.3.3 3 2.3 3.5 1.8.4 2.5 1.2 2.4 2.8-.1 1.2.3 2.2.7 2.2.5 0 .8 1.4.7 3.2-.3 2.6.1 3.3 2.2 3.8s2.2.7.8 1.3c-1 .3-1.8 1.4-1.8 2.3 0 1.5.2 1.5 2.3.1 1.2-.8 2.1-2 2-2.5-.1-.5.2-2.4.7-4.1.8-2.8.5-3.5-2.7-6.7-3.3-3.4-3.4-3.6-1.6-5 1-.9 1.3-1.3.6-1-1.4.8-2.6-2.7-1.8-5.3.4-1.4-.1-2-2-2.5-1.4-.4-2.4-1-2.1-1.4.7-1.2-.7-2.9-3.1-3.6-2-.6-2.3-.4-2.3 1.8zM136.6 591.6c-.9 2.2-.8 2.4.9 2.4.8 0 1.5-.9 1.5-2 0-2.4-1.5-2.7-2.4-.4zM144.6 600.6c-.5 1.4-.4 1.5.9.4 1.7-1.4 1.9-2 .6-2-.5 0-1.2.7-1.5 1.6zM136.8 601.2c.9.9 1.5.9 2.4 0 .9-.9.7-1.2-1.2-1.2s-2.1.3-1.2 1.2zM145 607.7c-2.5 1-4 3.7-2.7 4.5.9.6.9.8 0 .8-.7 0-1.3.5-1.3 1.1 0 .6.9.9 2.1.7 1.4-.2 2.5-1.5 3.4-4.1 1.3-3.8 1.2-4-1.5-3zM120 610c0 .7-1.3.8-3.5.4-2.9-.5-3.5-.3-3.5 1 0 .9 1.1 2.7 2.3 3.9 2.3 2.1 4.2 6.9 3.8 9.4-.1.7.3 1.3.9 1.3.5 0 1-.5 1-1.1 0-.5.5-.7 1-.4.6.3 1 .1 1-.5 0-.7.7-.9 1.6-.6.8.3 1.3.2 1-.3-.3-.4.4-1.7 1.5-2.7 2-1.8 2-1.8-.5-4.1-1.4-1.3-3-2.3-3.7-2.3-.7 0-.9-.9-.5-2.5.5-1.8.2-2.5-.9-2.5-.8 0-1.5.5-1.5 1zM135.3 622.2c-1.6 2.2-.9 4.3 1.5 4.4 2.9.2 3.6-1 2-3.6-1.5-2.3-2.2-2.5-3.5-.8zM173.5 637c-.3 1.4-2.1 3.6-4 4.9-1.9 1.3-3.2 2.7-2.9 3.2.8 1.4 4.4 1.1 4.4-.4 0-.7.3-.8.8-.2 1.2 1.7 2.7 1.5 4.1-.7 1-1.6 1-1.9-.1-1.3-1 .6-1.1.5 0-.6 1.6-1.7 1.5-3.1-.2-5.5-1.4-1.8-1.5-1.8-2.1.6zM147.9 642.1c-1.4 2.7-2.1 8.9-.9 8.9.4 0 1.3-1.9 1.9-4.3.7-2.3 1.5-4.8 1.7-5.5.9-2.1-1.5-1.3-2.7.9zM169.7 655.7c-.7 1.1 1.7 4.3 3.3 4.3.7 0 2-2.4 2-3.7 0-.3-.9-.3-2 0-1 .3-2.1 0-2.3-.6-.2-.8-.5-.8-1 0z"/></svg>