<svg version="1" xmlns="http://www.w3.org/2000/svg" width="1053.333" height="1053.333" viewBox="0 0 790.000000 790.000000"><path d="M362.5 1c-104 9.1-197.6 56.7-266.1 135.3C21.5 222.3-11.8 334.8 3.6 450c5.7 42.8 20.6 89 41.1 128 61.7 117 176.4 195.1 306.8 209 16.6 1.8 58.5 2.4 73.5 1.1 17.7-1.6 37.2-4.5 51.8-7.7 16.6-3.7 44.6-11.8 49.2-14.3.9-.5 3.1-1.2 4.9-1.6 1.8-.4 7.9-2.7 13.5-5.2 5.5-2.4 11.3-4.9 12.8-5.5 4.8-1.8 23.4-11.5 38.3-20.1 37-21.3 77.2-56.2 106-92.2 12.3-15.4 27.1-36.8 32.5-47 1.7-3.3 3.5-6.4 4-7 .4-.5 3.5-6.2 6.9-12.6 32.8-62.8 47.7-135.7 42.8-208.8-1.8-25.9-6.5-53.2-13.7-79.1-3.1-11.1-8.4-26.7-9.4-27.7-.3-.4-.6-1.4-.6-2.4 0-1.5-2-6.7-8.6-21.9-17.5-40.7-47.1-84.2-80-117.6C611.8 53 530.9 13.4 441 2.5 425.2.6 377.6-.3 362.5 1zM397 28.7c-.1 5.6-1.7 11.6-3.5 12.9-1.3 1-1.4 1.7-.5 3.3.6 1.2.8 2.6.5 3.1-.3.5-.8 3-1 5.7-.3 2.6-1 5.2-1.5 5.7-.6.6-1 2.1-1 3.4 0 1.4-.4 4.1-1 6.1-1 3.9-5.9 25.2-8.5 37.1-1.8 8-4.3 17.2-5.5 20.5-.4 1.1-1.3 5.6-2 10-.6 4.4-2.7 14.1-4.6 21.5-3.1 12.5-6.6 28.1-10 44-.7 3.6-3 12.8-4.9 20.5-4 15.4-4.9 19.6-6.4 27-1.3 6.9-6.8 30.8-8.5 37.5-.8 3-2.3 9.1-3.2 13.5-.9 4.4-2.3 9-3 10.2-.7 1.1-1.6 5.2-2 9-.6 7.2-2.9 17.9-6.9 32.8-1.3 4.9-2.6 10.1-2.9 11.5-3.7 19.4-6.1 30-6.7 30-.8 0-17.6-16.7-60.5-60.1-15-15-29.6-29.7-32.5-32.5-4.7-4.4-25.6-25.6-88.4-89.2-10.7-10.9-14.6-15.5-13.8-16.3.7-.7.6-2.1-.7-4.6-.9-2-1.5-4.4-1.2-5.5.3-1.3-.1-1.8-1.8-1.8-2.5 0-7.2-3.4-8.1-5.8-1.1-3 .9-5.3 4.1-4.7 4 .7 4.5-.9 1.6-5.2-3.4-5-1.9-5.7 6.1-2.7 3.5 1.3 6.8 2.4 7.3 2.4 1.9 0 1-2.1-1.4-3-1.3-.5-2.7-1.4-3.1-1.9-.9-1.6 2.7-7.1 4.6-7.1 2.9 0 4.9-1.1 4.9-2.7 0-1.2 1.1-1.4 5.3-1.1 5.1.3 5.2.3 5.2-2.5.1-2.6-.2-2.8-2.7-2.3s-2.8.3-2.8-2.3c0-1.9.7-3.2 2.6-4.1 2.2-1.2 2.5-1.9 1.9-4.8-.3-1.8-.9-4-1.2-4.8-.4-1 0-1.2 1.1-.8.9.3 2.3 0 3.2-.7.8-.7 3.2-1.5 5.2-1.9 3.9-.6 3.9-.6 2.6-7.7-.9-4.5 1.8-5.6 4.7-1.9 2.2 2.8 4.5 3.4 5.2 1.3.3-.8 1-.7 2.6.7 2 1.8 2.2 1.8 3.9.3 2.9-2.6 5.1-2 7.4 1.9 1.3 2.3 2.6 3.3 3.5 3 .8-.4 2.6-.9 3.9-1.2 3.3-.8 3.2-5-.3-8.6-1.4-1.5-2.4-3.1-2-3.4 1.1-1.2 10.1-1.3 11.4-.2 1.9 1.6 1.6 4.1-.7 5.6-2.4 1.5-2.7 6.7-.5 9.5.7 1.1 1.1 2.5.9 3.2-.3.7-.1 1.6.4 1.9.5.3 1.2-.3 1.5-1.4.4-1.5 1.4-2 4-2 4.9 0 5.4-1.4 1.6-4.7-4.6-4.1-5.4-6.1-3.4-8.3 1.1-1.3 1.3-1.9.4-2.2-.8-.3-.6-1 .6-2.2 1.3-1.3 3-1.7 6-1.4 2.8.2 4.2-.1 4.2-1 0-.6-1.2-1.2-2.8-1.2-2.7 0-4.5-2.2-3.3-4.1 1.4-2.3-.7-5.8-4.1-7-2.8-1.1-3.5-1.8-3.5-4 0-1.5.5-3.1 1-3.4 1.7-1 9.8 4.8 10.9 7.7.8 2.3 1.6 2.8 4.1 2.8 3.9 0 3.6-2-.6-3.3-3.6-1.2-4.2-2.1-3.6-5.2.3-2-.3-2.9-3.2-4.6-4.3-2.5-4.9-5.9-1.1-5.9 1.4 0 3.7.7 5 1.6 1.4.9 2.5 1.3 2.5.9 0-.5.9 0 1.9.9 2.3 2.1 5.9 1.4 5.7-1.1-.2-2.8 2.7-2.6 6.6.4 4 3 5.2 4.9 4.2 6.5-.5.7-1.1.5-1.9-.5-.6-.9-2.3-1.9-3.7-2.2-2.1-.5-2.8-.1-4.5 2.8-2.5 4.2-1.6 6.3 2.2 5.3 3.9-1 7.5 1.6 7.5 5.4 0 1.8.8 3.4 2.2 4.4 1.9 1.4 2 1.8.9 4-1.1 2-1 2.8.4 5 1 1.4 2.1 2.6 2.6 2.6 1.4 0 1.1-2.8-.3-3.2-.9-.3-.8-1.2.5-3.1 2-3.1 2.2-6.6.5-10.3-1-2.2-1-2.8 0-3.2.7-.2 1.9-1 2.7-1.9 2.6-2.5 5-1.2 4.7 2.5-.3 2.5.1 3.2 1.3 3.2 1.4 0 1.6-.7 1.3-3.1-.5-3.5 1.4-4.9 4.2-3.2 1.3.9 1.9.7 2.8-.8.7-1 2.3-1.9 3.7-1.9 1.8 0 2.6-.7 3.1-2.5.3-1.4 1-2.2 1.5-1.9.5.3 1.7 0 2.6-.6 1.7-1 1.6-1-.2-.9-1.1.1-2.7 0-3.5-.4-.8-.3-2.3-.8-3.3-1.1-1.1-.3-1.7-1.3-1.5-2.3.4-2.1 6.6-3.9 8.1-2.4 1.6 1.6 3.7 1.3 3.7-.4 0-3.1-2.6-6.8-6.2-8.6-2.1-1.1-3.8-2.5-3.8-3.3 0-.7 2-2.1 4.4-3 2.8-1.1 4.7-2.6 5.5-4.4 1.2-2.6 1.3-2.6 2.7-.8 1.2 1.7 1.7 1.8 3.9.6 2-1 2.8-1.1 3.7-.2 1.8 1.8 3.8 1.5 3.8-.6 0-.9.4-2.3.9-3.1.8-1.2 1.2-1.2 2.5-.2 1.4 1.2 1.6 1.1 1.6-.6 0-3.2 2.1-4.5 4.1-2.7 2.4 2.1 4.3 1 2.8-1.7-1.6-3-.4-4.9 3.1-4.9 2.7 0 3 .3 3 3.1 0 2.6.3 3 1.8 2.3.9-.4 2.9-.7 4.4-.6 1.7.1 3.3-.6 4.1-1.8 2-2.8 4.1-1 3.2 2.9-.6 3-4.1 6.5-5.6 5.6-.4-.3-1 .2-1.3 1.1-.5 1.4-.1 1.5 2.8 1 2.5-.5 3.5-.3 4 .9.4 1.2 0 1.4-1.9 1.1-3.1-.6-3.1.3-.3 3.9 1.8 2.3 2.7 2.6 5.9 2.2 5.5-.7 7.3-3 7.6-9.3.1-3.9.8-5.8 2.6-7.8 1.3-1.4 2.9-2.6 3.6-2.6.6 0 1.1-.8 1.1-1.9 0-2.6 2.2-4.2 4-3.1 2.1 1.4 3 1.2 3-.5 0-.8 1.2-2.2 2.6-3.2 2.6-1.7 2.7-1.6 5 1.1 1.3 1.5 2.4 3.6 2.4 4.6 0 2.8 4.7 6 8.7 6 2.7 0 3.4-.3 2.9-1.5-.7-1.9.3-4.5 1.6-4.5.6 0 1.7.8 2.4 1.7 1.3 1.7 1.5 1.7 3.2-.2 3.4-3.8 8-3.1 11.1 1.7 1.1 1.8 2.1 2.7 2.1 2 0-.7 1.1-1.7 2.5-2.2 1.4-.5 2.5-1.4 2.5-2 0-.6.5-.8 1-.5.6.3 1 1.5 1 2.5s.3 2.1.8 2.4c.4.2.6-2.8.4-6.8-.4-6.4-.2-7.4 1.4-8 1.2-.5 2.3-.1 3.1 1 1.2 1.7 1.3 1.7 1.3-.2 0-1.1-.5-2.5-1.1-3.1-1.7-1.7-.6-5.7 2.1-7 4.1-2.1 5-1.6 5 2.4zM358.5 34c0 .8-1 1.6-2.2 1.8-2.2.3-3.2-1.6-1.6-3.2 1.2-1.1 3.8-.2 3.8 1.4zm20.3 1.7c3.6 5.2 3.6 5.3 0 4.6-4.1-.7-5.8-2-5.8-4.3 0-1.6 1.2-2.7 3.2-2.9.4-.1 1.5 1.1 2.6 2.6zM365 39c.8 1.6.8 2.2-.4 2.6-.8.3-2 .3-2.6-.1-1.4-.9-2.9-4.7-2.3-5.8.6-1.1 4.1 1.1 5.3 3.3zm-60-1.6c0 1.7-2.7 2.9-3.5 1.6-.4-.6-.3-1.5 0-2 .9-1.5 3.5-1.2 3.5.4zm126.2 2.4c-.3 2.6 0 3.2 1.6 3.2 3 0 4.3 2.2 2.6 4.4-.8 1.1-1.4 2.9-1.4 3.9 0 1.6.3 1.7 1.5.7.9-.7 2.6-.9 4.5-.5 2.4.5 3 .3 3-1 0-1 .7-1.5 1.8-1.3 1.2.2 1.8-.5 2-2.7.3-2.9 2.2-6.1 2.2-3.8 0 .6.9 1.3 2 1.6 1.3.3 1.8 1 1.4 2.1-.4 1 .1 1.8 1.2 2.2 1.7.6 8.7 7.4 12.2 11.7.6.9 1.9 1.4 2.7 1.1 1.9-.8 2-2.4.1-2.4-1.4 0-2.6-2.1-2.6-4.6 0-.8.9-1.4 2-1.4 3.3 0 5.5-7.1 3-9.6-1.5-1.5-.1-4.4 2-4.4 1.8 0 3.8 3.6 2.6 4.7-1 1.1 1.5 4.3 3.3 4.3 2.5 0 3.3-2.4 2.5-7.7-.5-3.4-.3-4.3.8-4.3 2.1 0 4.4 2.9 5.8 7.5.6 2.2 1.5 5.2 2 6.7.9 3-.1 4.3-3.5 5-3.1.5-3.2 4.6-.1 5.8 3.4 1.2 4.4 5.4 2.1 8-1.1 1.2-1.5 2.8-1.2 4.1.3 1.2.2 3-.4 4-.6 1.2-.5 2 .1 2.4 1.3.8 5.5-4.2 5.5-6.5 0-.8.8-1.5 1.8-1.4 7.7.4 7.7.3 7.7 2.8 0 1.6-.7 2.7-2 3.1-1.1.3-2 1.3-2 2.1 0 2 1.7 1.7 4.1-.7 2.4-2.4 4.9-1.8 4.9 1.2 0 1.7.4 2 2.2 1.6 1.4-.4 2.9 0 4 1 1.4 1.3 2.3 1.4 4.1.6 1.9-.9 2.6-.8 3.4.6.6.9 1.4 1.3 1.7 1 .4-.4-.5-2.1-2-3.8-2.8-3.3-2.6-6.1.3-6.1 2.5.1 5.1 2.2 6.2 5.3 1.4 3.7 2.4 3.4 4.5-1.3 1.3-3 1.5-4.4.7-5.9-1.4-2.5-1.4-7.1-.1-7.1.6 0 2.5.7 4.2 1.6 2 1 4.2 1.4 6.5.9 3.2-.6 3.4-.4 3.1 1.6-.2 1.7.3 2.4 2.2 2.9 1.8.4 2.6 1.4 2.8 3.3.4 3.2.4 3.2 4.2 1.2 3-1.5 3.6-1.1 3.1 1.9-.1.5.4.5 1.1-.1 2.6-2.2 5.1-1.9 5.8.6.7 3.1 2.6 3.8 3.3 1.1.7-2.8 3.7-3.7 5.3-1.5 1.1 1.4 1 2.2-.4 4.3-1.4 2.1-1.4 2.6-.2 3 .7.3 2.4 1.6 3.7 3 1.5 1.6 2.9 2.3 4.3 1.9 1.4-.4 2 0 2 1.3 0 2.5-5.4 4.6-8.4 3.2-2.3-1-3.6-.7-3.6.9 0 .3.9.9 2 1.2 2 .5 2.9 4.7 1 4.7-.5 0-1-.7-1-1.5 0-1.6-2-1.6-3.2 0-1.4 1.8-.8 5.2 1 6.8 1 1 2.2 1.4 2.5 1.1.4-.4.9.1 1.3 1 .8 2 7.4 2.3 7.4.3 0-.7 1.4-2.4 3.1-3.6 2.6-1.9 4-2.2 8-1.9 2.7.3 5.2.1 5.5-.3 1-1.7 3.6-.9 4.1 1.2.4 1.6 1.1 1.9 2.9 1.5 1.3-.4 3.6-.3 5 0 2.3.6 2.5 1 1.9 4.3-.4 2-1.1 3.7-1.6 3.9-.5.2-.9 2.3-.9 4.7 0 3.3.6 5 2.2 6.5 1.9 1.8 2.3 1.8 3.8.5 2.4-2.2 4-1.8 4 1 0 1.4.5 2.5 1.1 2.5.7 0 3.2 1 5.6 2.2 3.9 2 4.3 2.5 3.8 4.9-.5 2.4-.2 3 2.4 4.4 1.7.8 3.1 2 3.1 2.5 0 2 2.3.9 5.6-2.7 2.8-3.1 3.6-3.4 4.9-2.3.9.8 1.3 2 .9 3.2-.5 1.6-.2 1.9 1.3 1.6 1-.2 1.7-.9 1.6-1.6-.6-2.8 1.7-6.2 4.2-6.2 2.9 0 3.1 1 .9 4.8l-1.6 2.7 2.6-2.8c3.2-3.4 5-2.6 4.3 1.8-.5 2.9-.2 3.4 1.9 3.9 3.1.8 3.1 2.4-.1 3.2-3 .7-5.9-.2-5-1.6.3-.5.2-1-.4-1-2 0-2.1 1.9-.1 3 1.3.7 1.9 1.8 1.6 2.6-.3.9.1 1.4 1.4 1.4 1.1 0 3.2 1.3 4.6 3 2 2.2 3.3 2.8 5 2.4 1.6-.4 2.5 0 3.4 1.5.6 1.2.8 2.6.5 3.1-.3.5.3 1.4 1.3 1.9 2.6 1.4 3.3 5.5 1.4 8.2-1.2 1.7-2.1 2-5.2 1.5-3.2-.5-3.8-.3-4.3 1.5-.4 1.5-.2 1.9.9 1.5.8-.3 2.1-.9 2.9-1.2 1-.4 1.5 0 1.5 1s-1.5 2.3-3.5 3.2c-4.3 1.8-4.7 4.4-.6 4.4 1.6 0 3.9-1.1 5.6-2.6 2-1.8 3.1-2.2 3.9-1.4.8.8.2 1.7-1.9 3.5-3.4 2.8-3 3.2 1.1 1 3.1-1.6 9.3-1.1 10.6.8.4.8 1.5.7 3.4-.1 3.2-1.5 4.7-.6 2.1 1.3-1 .7-1.9 2.7-1.9 4.4-.1 1.8-.8 3.6-1.7 4.1-1.4.8-1.3.9.5 1 1.2 0 3.3-.9 4.7-2.1 1.5-1.1 3.6-2.2 4.8-2.4 1.8-.4 2-.1 1.6 2.3-.3 1.5-.1 3.5.5 4.6.8 1.4.7 1.7-.4 1.1-1-.6-1-.5-.1.5 1 1 .7 1.9-1.2 4.2-2.7 3.2-3.2 5.7-1.2 5.9 2.8.3 5.3-.4 6.8-1.7 2.6-2.3 6.8-2.7 7.6-.8.6 1.6-.5 2.9-4.7 5.5-1.3.8-1.3 1.1.3 2.3 1.5 1.2 1.3 1.5-2.8 3-2.5 1-4.5 2.4-4.5 3.2 0 .8.6 1.3 1.2 1.2.7-.2 1.3.4 1.3 1.2 0 .8-1.1 1.7-2.4 1.8-1.9.3-2.2 0-1.7-1.4.5-1.4.4-1.5-.9-.4-.8.7-1.2 1.6-.9 2.1.3.5-.3 1.2-1.3 1.5-1 .3-2.9 1.1-4.3 1.9-1.4.7-6.1 2.3-10.5 3.5-4.4 1.2-11.4 3.3-15.5 4.6-4.1 1.3-8.2 2.4-9 2.4-.8 0-5.7 1.3-11 2.9-14.8 4.5-56.8 17-64 19.1-3.6 1-13.9 4-23 6.6-9.1 2.5-19.2 5.4-22.5 6.4-3.3 1-18.4 5.3-33.5 9.5-15.1 4.2-31.8 8.9-37 10.5-16.5 4.8-18.2 5.1-21 3.3-2.2-1.5-2.4-1.5-1.2-.1 1.1 1.4.9 1.9-1 3.2-1.2.9-3.8 1.9-5.8 2.2-1.9.4-4.2 1-5.1 1.5-.8.4-5.1 1.7-9.5 2.9-27.7 7.6-33.2 8.9-36 9-1.6 0-3.9.7-5 1.5-1 .8-2.6 1.5-3.5 1.5-1 0-5 1.3-9 3-4.1 1.6-7.6 3-7.7 3-.6 0 .8-7.8 2.4-14 .7-3 2-8.4 2.8-12 .8-3.6 3.8-16.4 6.6-28.5 10.4-45 9.8-43 13.4-42.1 1.9.5 2 .4.4-.8-2.1-1.5-2.4-7.6-.6-9.4.7-.7 1.1-3.1 1-5.5-.2-2.4 1.4-10.8 3.9-20.2 2.2-8.8 4.5-18.5 5-21.5s3-14.1 5.5-24.5c6.7-28.4 13.9-58.6 17-71 1.4-6.1 2.8-12.4 2.9-14.2.2-1.7.6-3.6.9-4.1.3-.6 1.1-3.3 1.6-6.1 1.7-9 5.2-19.2 6.4-18.8.6.2 1 1.8.8 3.5zm33.7-1.5c1.4 3.6 1.1 9.5-.5 10.1-1.1.4-1.3-.1-.8-2s0-3-2-4.9c-3.4-3.1-3.4-5.5-.1-5.5 1.7 0 2.8.7 3.4 2.3zM321 38c0 .5-.2 1-.4 1-.3 0-.8-.5-1.1-1-.3-.6-.1-1 .4-1 .6 0 1.1.4 1.1 1zm181 8.5c0 1.9-2 2.9-3.1 1.8-1.4-1.4 0-4.3 1.7-3.6.8.3 1.4 1.1 1.4 1.8zm7.5 1.3c-.5 2.2-.4 2.3 3 1.6 3.1-.5 3.5-.4 3.5 1.4 0 2.6 1.5 3.6 2.9 1.8 1.3-1.6 8.3-1.5 8.9.2.2.6-.8 1.7-2.1 2.3-3.4 1.5-4 4.4-1.7 8.6 2.2 4.2 1.7 6.3-1.6 6.3-1.5 0-2.4.6-2.4 1.5 0 .8-.8 1.5-1.8 1.5s-2.3.5-3 1.2c-1.5 1.5-4.2-.7-4.2-3.4 0-2.1-3.2-3.8-3.8-2-.6 1.9-3 1.4-4.2-.8-.6-1.1-1.6-1.9-2.3-1.7-.6.1-1.3-.8-1.5-2.1-.2-1.4-1-2.2-2.3-2.2-1.3 0-1.9-.7-1.9-2.3 0-1.3-.6-3.2-1.4-4.2-1.6-2.2-.5-5.5 1.8-5.5 1.5 0 3 4.3 2.7 7.5-.1 1.4.4 2.1 1.6 2.2 6.4.6 7.3.9 7.3 2.5 0 2.4 2.7 2.3 4.2-.2.7-1.1 2.2-2 3.4-2 1.2 0 2.5-.7 2.8-1.6.4-1 1.3-1.3 2.8-1 2 .5 1.9.4-.2-.5-1.4-.6-3.7-1.7-5.2-2.5-1.4-.8-3.3-1.4-4.1-1.4-2.3 0-6.7-4-6.7-6.1 0-1.5.6-1.9 3.1-1.7 2.6.2 2.9.5 2.4 2.6zm-233.1.8c1.5 3.9-1.5 8.1-4.9 6.8-1.8-.7-4.7-6.3-3.9-7.5 1-1.6 8.1-1 8.8.7zm38.3.9c-.4.8-.2 1.7.3 2 .6.4 1 1.7 1 3.1 0 1.9-.5 2.5-1.7 2.2-2.5-.5-3.2-8.8-.8-8.8 1.1 0 1.5.5 1.2 1.5zm-61.4 8c-.3.9-.8 1.4-1 1.1-.3-.3-.2-.9.2-1.5.9-1.6 1.5-1.3.8.4zm276.7 1c0 .8-.7 1.5-1.5 1.5s-1.5-.7-1.5-1.5.7-1.5 1.5-1.5 1.5.7 1.5 1.5zm7.8.9c-.7.8-1.5 1.2-1.7 1.1-.5-.6 1-2.5 2-2.5.5 0 .4.6-.3 1.4zM243 61.7c0 .2-.5 1.3-1.1 2.4-1.4 2.7 1.3 6.9 4.4 6.9 1.3 0 3.2.6 4.2 1.4 1.6 1.2 1.7 1.6.6 3-.8.9-1.5 3.2-1.6 5.2-.3 4.5-2.8 7.3-5.3 5.7-.9-.6-1.6-1.6-1.4-2.2.1-.8-.5-.7-1.8.1-1.1.7-2 2.1-2 3 0 1.4-.8 1.8-3.5 1.8-3.4 0-8.5-1.8-8.5-2.9 0-1.4 6.1-3.9 8.1-3.4 2 .6 2.1.3 1.6-2.8-.3-2.3 0-4 1.1-5.2 1.1-1.2 1.2-2.1.5-2.8-1.4-1.4-6.7-.3-8.4 1.7-2.1 2.5-9.9 1.6-9.9-1.2 0-1.9 4.1-3.5 5.7-2.2.9.7 1.8.4 3.2-1.3 1.6-1.9 2.2-2.2 3.2-1.2 1.9 1.9 4.2 1.6 3.5-.4-.8-2 4-7.4 6-6.6.8.3 1.4.7 1.4 1zm5 2.9c0 .8-.7 1.4-1.5 1.4-1.5 0-2.1-2.1-.9-3.3 1-.9 2.4.2 2.4 1.9zm310.5.8c2.2 2 2.5 2.8 1.6 4.5-1.4 2.5-4.8 3.6-6.6 2.1-1.8-1.5-1.9-3.1-.3-6.5 1.4-3.1 2-3.1 5.3-.1zm-339 10.7c.8 2.5.1 3.4-2 2.6-1.9-.8-2-4.7-.1-4.7.8 0 1.8.9 2.1 2.1zm369 4.9c0 2.2-2.9 1.8-3.3-.3-.3-1.4.1-1.8 1.5-1.5 1 .2 1.8 1 1.8 1.8zM599 94c0 .5-.2 1-.4 1-.3 0-.8-.5-1.1-1-.3-.6-.1-1 .4-1 .6 0 1.1.4 1.1 1zm-12.5 1.9c.3.5.1 1.2-.5 1.6-.5.3-1 1.4-1 2.3 0 1-.9 2.3-2 3-3.2 1.9-3.7-1.1-.8-4.7 2.5-3.2 3.3-3.6 4.3-2.2zM187.4 97c4.4 1.6 2.8 5-2.4 5-2.4 0-3.3-1.5-2.5-4 .7-2.3 1.3-2.4 4.9-1zm7.6 5c0 .5-.4 1-.9 1-.6 0-1.3-.5-1.6-1-.3-.6.1-1 .9-1 .9 0 1.6.4 1.6 1zm433.6 13.4c.3.8.2 2.2-.3 3-1.3 2.3-4.7-.2-3.7-2.7.8-2.1 3.3-2.2 4-.3zm.4 9.1c0 2.8-1.7 4.2-3.3 2.6-.7-.7-.7-1.8.1-3.6 1.4-3 3.2-2.4 3.2 1zm12.1 8.1c.5 2.9-.5 6.4-1.9 6.4-.4 0-1.6-1.4-2.6-3.1-1.7-2.9-1.7-3.1 0-5 2.3-2.5 3.8-2 4.5 1.7zm-506.2 8c1.1 1.1-.7 1-3.4-.3l-3-1.4 3 .6c1.6.4 3.2.9 3.4 1.1zm553.3 40.6c-.9.9-1.5.9-2.4 0-.9-.9-.7-1.2 1.2-1.2s2.1.3 1.2 1.2zM89.6 215.5c1.4 1.4 2.7 2.5 3 2.5.4 0 4 3 8.1 6.7 8 7.2 11.2 11.8 9.4 13.6-1.7 1.7-1.3 2.7.8 2.7 1.1 0 2.2.4 2.5.9.3.4 2 1.1 3.7 1.5 2.5.5 23.9 21.3 103.7 101.2 55.3 55.3 101.7 101.1 103.3 101.7 3.2 1.4 25.4 22.5 24.6 23.4-.7.6-14.2 4.4-26.2 7.2-9.1 2.2-31.5 8.1-51.5 13.5-7.4 2.1-22.9 6.1-34.5 9.1-11.5 2.9-26.4 6.8-33 8.5-6.6 1.7-17.4 4.5-24 6.1-6.6 1.6-13.1 3.3-14.5 3.8-3 1.1-14.5 4-45.4 11.6-15.9 4-23.6 5.4-25.5 4.9-1.4-.4-3-.6-3.6-.5-.5.1-1.4-.5-2.1-1.3-.9-1.3-2-1.4-6-.7-3.4.7-5.3.6-6.3-.2-1.6-1.3-5-3.4-7.1-4.2-3.7-1.5-4.5-2.4-4.3-4.9.1-1.5-.2-2.4-.7-2.1-1.3.8-4-2.4-4-4.9 0-1.2.5-2.7 1.2-3.4.7-.7.8-1.2.3-1.2-.6 0 .4-.9 2.1-1.9 2.1-1.3 3.3-3 3.8-5.1.9-5 .8-6.3-.8-5.7-1.8.7-3.8-1.6-3.1-3.5.4-.9-.4-2-2-2.8-1.4-.7-2.3-1.6-2-1.9.8-.7-6.6-4.2-7.6-3.5-2.7 1.6-6.8-8-4.9-11.5.5-1.1.7-2.7.4-3.5-.4-1 0-1.8 1-2.2.9-.3 1.6-1.2 1.6-1.9 0-1.6-5-2.6-7-1.4-.8.4-1.1.9-.6.9 1.4 0-1.5 3-3 3-.8 0-1.4-.7-1.4-1.5s.5-1.5 1-1.5c1.8 0 1.1-1.5-1.2-2.5-2.7-1.2-3.6-4.4-1.6-5.6 2.7-1.8 14.1 1.4 15 4.2.3.9 1 .8 2.8-.2 2.3-1.2 2.4-1.3.5-1.7-1.1-.2-2.5-1-3.1-1.8-1.4-1.8-.3-7.6 1.5-8.2 1-.3 1.2.2.8 2.1-.8 3.1.5 4.3 6 5.2 4.1.6 4.3.5 7.3-3.6 1.7-2.3 2.9-4.7 2.7-5.2-.1-.5-2.4-1.6-5.1-2.6-2.6-.9-6.1-2.9-7.7-4.5-2.6-2.7-3.1-2.8-6.9-1.8-2.2.5-4.8.8-5.8.7-6.1-1.2-7.2-1.7-7.2-3 0-.7.9-2 2-2.8 1.1-.8 1.7-1.7 1.3-2-.3-.4.1-.7 1-.7s2.9-1.2 4.4-2.6c2.2-2 2.3-2.3.4-1.1-1.3.9-2.8 1.4-3.5 1.2-5.2-1.5-5.1-1.4-2.1-4.5 1.6-1.7 3.5-3 4.2-3 1.2 0 4.3-4.9 4.3-6.8 0-3.1-7.1-1.2-9.3 2.5-.9 1.5-4.7 1.8-4.7.3 0-.6.6-1.3 1.4-1.6 1.6-.6.9-5.6-1-6.7-1.8-1.1-1.8-3.2.1-4.7 2.1-1.8 1.9-2.8-.7-3.2-2-.3-2.3-1-2.6-6-.3-5.5-.2-5.8 2.3-6.4 1.4-.4 4.4-.4 6.6-.1 4.2.6 5.4-.9 1.5-1.9-1.8-.4-2.5-1.5-3.1-4.7-1-5.4-.8-6.8 1.3-8.8 5.4-4.9 7.4-7.8 6.7-9.8-.4-1.4-1.5-2.1-3.3-2.1-1.5 0-3.5-.7-4.6-1.5-2.1-1.6-1.5-4.5 1-4.5 1.1 0 1.4-.5.9-1.8-.4-.9-1.1-3.1-1.6-4.8-.5-1.8-1.6-3.7-2.4-4.4-.8-.7-1.5-2.1-1.5-3.2 0-3.3 4.9-1.4 9.5 3.7 2.2 2.5 4.8 4.5 5.8 4.5 2.4 0 2.2-.5-1.8-6-1.9-2.6-3.5-5.7-3.5-6.9 0-3.1-4.1-8.9-6.7-9.6-1.3-.3-2.3-.9-2.3-1.4 0-1.7 3.3-2.1 5.6-.6 3.1 2 4.6 1.9 7.8-.6l2.7-2.1-2.1-2.3-2.1-2.2 2.2-.6c2.1-.6 2.1-.6-.9-4.4-1.7-2.2-4-3.9-5.3-4-2.3-.2-5.7-2.9-4.7-3.8.3-.3 1.5-.8 2.8-1 1.2-.2 2.9-1 3.7-1.6.8-.7 3.4-1.2 5.8-1 2.4.1 4.6-.3 5-.9 1.3-2.2 4.3-.8 6.9 3.1 2.4 3.6 3.1 4 5.4 3.4 3.1-.8 4.4-2.3 3.8-4.7-.2-1.1.4-1.8 2-2.2 2.3-.6 3.4-2.6 1.5-2.6-.5 0-3.4-1.4-6.5-3.2-4.2-2.4-5.6-3.8-5.6-5.5 0-1.6-.6-2.3-2-2.3-2.8 0-8.5-5.3-7.7-7.3.4-1.1 1.4-1.4 3.1-1.1 3 .5 3.4-1 1-4.5-2.1-3-.4-5.2 2.3-2.9 1 .8 3 1.8 4.5 2.2 1.5.3 3.5 1.4 4.5 2.5 2.4 2.4 4.7 3.1 6.4 2.1 1.1-.7.9-1.3-1-3.1l-2.4-2.2 3.3-1.6c1.9-.9 3.5-2.1 3.6-2.6.3-.9-7-6.1-11-7.7-1-.5-3.7-2.3-6-4-2.2-1.8-4.3-3.3-4.5-3.4-.2-.2.3-1.7 1-3.4.9-1.9 1.9-2.8 2.8-2.5.8.3 1.8 0 2.2-.6.5-.8 1.6-.5 3.6 1.1 3.8 2.8 9.6 3.2 10.1.7.3-1.4-.4-1.7-3.3-1.7-4.6 0-9.4-4.2-7.5-6.5.7-.8 1.9-1.5 2.7-1.5 1.1 0 1.1-.4.2-2.1-1.3-2.5.1-3.9 3.8-3.9 1.2 0 2.5-.5 2.8-1 .3-.6.2-1-.3-1-2 0-6.1-4.1-5.5-5.5.6-1.8 6.5-2 9.4-.4 2.7 1.4 4.5-.2 5.2-4.4.3-2-.1-3.8-1-4.9-1.5-1.7-1-3.8.8-3.8.5 0 2.1 1.1 3.5 2.5zm640.9 42.4c.3.5-.8 2.4-2.4 4.2-2.9 3.1-3.2 5.9-.6 5.9.6 0 2.6-1.4 4.4-3.1 3.7-3.5 5.5-3.4 5.9.4.2 1.8-.3 3-1.7 3.9-1.2.7-2.1 1.8-2.1 2.4 0 .6-.7 1.7-1.5 2.4-1.6 1.3-2.1 6.5-.6 5.6 1.4-.9 2.2 2.3 1.1 4.4-.5 1-2.6 2.7-4.6 3.9-4 2.4-6.9 1.8-3.6-.8 1.1-.9 2.4-2.8 2.7-4.2.5-2.1.1-2.9-2-4.3-3.5-2.3-6.1-1.7-5.7 1.4.4 3.5-3.4 7-6.7 6.4-1.8-.4-3.2 0-4 1-1.7 2-3 2-5.1.1-2-1.8-7.4-.6-7.8 1.8-.4 2.1 1.7 2.2 2.5.1.5-1.3 1-1.1 3.2 1 2.5 2.4 7.5 3.6 11 2.5.8-.2 2.2 1.1 3.5 3.4 1.7 3.3 1.8 4 .6 4.8-.8.5-2.1.7-2.7.4-.7-.3-2-.8-2.8-1.1-.9-.4-1.5 0-1.5.9s1.3 1.8 3 2.2c3.3.7 4.2 4.1 1.4 5.2-1.3.5-1.2.8.5 2.4 1.2 1.2 1.7 2.6 1.4 3.9-.4 1.4.1 2.6 1.5 3.6 1.1.7 1.9 2.2 1.8 3.1-.2 1-.1 1.2.1.5.3-.6.9-1.2 1.4-1.2.5 0 .9-.8.9-1.9 0-2.6 2.7-4.8 4.2-3.3 1.7 1.7 1.9 6.9.3 8.2-2.2 1.8-2 5.3.3 4.6.9-.2 3.2-.7 5-1.1 1.7-.4 3.2-1.2 3.2-1.8 0-1.2 4-5.7 5.1-5.7.4 0 1.2 2.3 1.8 5.1.7 3 2 5.9 3.4 7l2.2 1.9-2.2.6c-2.6.7-2.7.8-1.2 3.6 1 1.8.8 2.4-1.1 3.8l-2.2 1.7 3.2 2.3c3.1 2.2 3.2 2.4 1.4 3.7-1.5 1.1-1.5 1.3-.2 1.3 3 0 4.1 2.6 2.3 5.4-1.8 2.7-1.6 3 2.4 2.6 2.9-.2 4.3 1.8 3 4.3-.8 1.4-1.7 1.7-3.8 1.2-2.7-.6-2.7-.6-2.6 4.9 0 3.1.6 6.1 1.2 6.7 1 1 .8 1.5-.5 2.5-1.4 1.1-1.5 1.5-.3 2.3.8.5 1.1 1.6.8 2.5-.5 1.3-1.9 1.6-6.2 1.5-3-.1-5.5-.4-5.5-.7 0-1.4 3.5-4.2 5.2-4.2 2.2 0 2.3-1.3.3-3-.8-.7-1.5-2.3-1.5-3.6 0-1.2-.4-2.6-1-2.9-.6-.4-1 .8-1 2.8 0 2.3-.6 3.7-1.6 4.1-2.3.9-3.3-.1-2.7-2.5.5-1.7.2-2-1.8-1.7-2.1.3-2.4.8-2.3 4 .1 2 .5 4.4.9 5.5.5 1 .7 2.4.6 3.1-.2 1 .4 1.2 1.9.7 3.3-1 8.4 1.9 10.6 6.1 1 2.1 2.7 4.6 3.7 5.7 1.8 1.8 1.8 2 .1 3.8-.9 1-1.5 2-1.3 2.2 3.2 1.9 5.1 2.7 6.3 2.7 1.4 0 2.6 2.1 2.6 4.6 0 .9-1.1 1.4-3.2 1.3-11.1-.3-16.1 2.7-17 10.1-.2 2 .2 2.6 2.7 3.1 1.7.4 2.4.7 1.8.8-1.7.1-1.6 3.8.1 4.4.7.3 3.2.3 5.5 0 3.4-.5 4.1-.3 4.1 1.1 0 1-1.4 2.3-3.2 3.1-6.7 2.9-9 6.5-4.4 6.5 1.3 0 3.1.3 4 .6 1.9.7 2.1 5 .4 5.7-2 .7-5-1.3-4.4-2.9.8-2.1-3.7-3.6-7-2.4l-2.6 1 2.3 1.9c2.1 1.7 2.2 2.2 1.1 4.6-1.5 3.2-.8 4.5 2.1 4.5 3.5 0 6.7-1.1 6.1-2.1-.3-.5.2-.9 1-.9 1.7 0 3 1.7 1.7 2.2-.5.1-1.1 1.6-1.3 3.3-.2 2.4.1 3 2.1 3.5 3.2.7 3.8 2.6 1.2 3.5-2.6.8-2.7 2.1-.3 3.4 1.4.8 1.5 1.3.4 3.1-.7 1.1-1 2.6-.6 3.2.4.6 0 1.6-.8 2.2-.8.6-1.7 1.9-2.1 2.9-.5 1.5-1.6 1.8-5.4 1.5-4.5-.3-4.7-.4-4.8-3.3 0-3.5-2.8-4.3-3.3-1-.2 1.3.8 2.9 2.7 4.3 2.5 1.8 2.9 2.7 2.5 5.1-.3 1.6-.1 3.1.4 3.5 1.9 1.2-1.7 6.6-4.4 6.6-1.3 0-2.4.4-2.4 1 0 .5-.6 1-1.2 1-1.9.1-5.8 3.6-5.8 5.2 0 .7 1.8 2.3 4 3.6 4.4 2.5 5.1 4.1 2 4.9-1.7.4-1.9 1.2-1.5 5.7.2 2.8.7 6.3 1 7.8.6 2.3.4 2.8-1.2 2.8-2.3 0-5-3-7.7-8.2-1.6-3.1-4.2-5.5-5.2-4.6-.1.2.9 3 2.3 6.3 1.8 4.2 2.2 6.4 1.6 7.5-1.3 1.9 1 7.5 4.5 11.3l2.6 2.7h-2.7c-1.4 0-2.9-.5-3.2-1.1-1.3-2-5.3-2.9-8.4-1.8-3 1.1-3 1.1-1.6 4 1.5 2.7 1.4 2.9-.5 2.9-1.1 0-2 .3-2 .7 0 1.5 2.5 7.3 3.1 7.3.4 0 2.1 1.2 3.8 2.6 4.7 3.9 3.6 4.6-6.9 4.4h-8.3c-3.7 0-4.9-.4-5.3-1.8-1.8-5.4-2.8-7.2-4.5-7.7-2.9-.9-5.9.4-5.9 2.6 0 2.5-.2 2.4-5.3-.8-4.1-2.7-12.6-10.3-23.7-21.3-3.1-3-8.5-8-12-11-7.8-6.6-51.4-46.6-62-56.7-4.1-4-7.7-7.3-8-7.3-.3 0-7.7-6.8-16.5-15.1s-18-16.7-20.5-18.7-8.6-7.5-13.5-12.2c-10.8-10.2-22.1-20.4-41.1-37.3-7.8-6.9-16.4-15.4-19.2-18.9-2.7-3.5-7.8-9-11.2-12.2-3.7-3.5-5.7-6.3-5.2-6.8s4.9-2 9.8-3.3c4.9-1.2 15-3.9 22.4-6 18.1-4.9 22-5.7 25.2-5.1 2 .4 2.6.2 2.2-.8-.5-1.2 11.6-5.9 22.1-8.5 2.2-.5 8.1-2.2 13-3.6 5-1.5 11.9-3.4 15.5-4.4 3.6-1 12.1-3.5 19-5.5 21.3-6.3 35-10.3 49-14.1 7.4-2 16.2-4.5 19.5-5.5 3.3-1 7.4-2.1 9-2.4 1.7-.4 7.7-2.2 13.5-4 5.8-1.9 14.3-4.4 19-5.6 4.7-1.3 11.1-3.1 14.4-4.2 3.4-1.1 7-1.7 8.6-1.3 1.6.3 3.1.2 3.5-.4.3-.6 2.8-1.1 5.4-1.1 3.5 0 5.3-.5 6.6-2 1.9-2 6.9-2.7 8-1.1zM741 284c0 1 .6 2 1.4 2.3 1.9.8 2.7 5.7.9 6.4-1.1.5-1.1.9.4 2.5 1.4 1.6 1.5 2.2.5 3.9-1.3 2.1-.7 4.3.9 3.4.5-.4 1.3.5 1.9 1.9.5 1.4 1.4 2.6 2 2.6 1.2 0 1.3 2.7.1 3.4-1.5 1-7.1-2.7-7.1-4.7 0-.9-.4-1.7-1-1.7s-.6.9-.1 2.3c.7 1.8.5 2.6-.9 3.5-1 .6-2 2.1-2.2 3.3-.2 1.2-1.1 2.7-2.1 3.3-1.4.9-2.1.7-3.2-.7-.7-1-1.9-1.7-2.7-1.5-2 .4-6.8-3.2-6.8-5.2 0-1 .7-2 1.5-2.4 2.4-.9 1.9-4.6-.6-4.6-1.7 0-2-.4-1.5-2.3.4-1.2.8-3 .9-4.1.1-1 1.2-2.5 2.4-3.3 2.1-1.4 2.3-1.4 3.4 1.3.7 2 .7 3.4 0 4.6-1.3 2 1.1 4.3 3.5 3.4 1-.4 2.5.1 3.6 1.1 1.7 1.5 2.1 1.5 2.9.3.5-.8.7-2.9.3-4.5-.8-4.3-.8-8.6.1-11.3.4-1.3.4-2.2-.1-2.1-3.4.6-5-2.6-1.6-3.4 2.3-.5 3.2.1 3.2 2.3zm-689 7c2.2 1.1 4.3 2 4.7 1.9 2.3-.4 3.3.3 3.3 2.1 0 1.7-.7 2-4 2-4.3 0-9-3.4-9-6.5 0-1.9.3-1.9 5 .5zm694.8 22.8c.2.7-.6 1.2-1.7 1.2-2.1 0-2.7-1.1-1.4-2.4.9-.9 2.6-.2 3.1 1.2zm-699.2 2.7c.8 2.1-3.2 5.5-6.6 5.5-2.3 0-3.3-.6-3.9-2.3-.6-1.6-.5-2.3.6-2.5.8-.2 2.4-1.3 3.4-2.3 1.6-1.6 2.3-1.7 4-.9 1.1.6 2.2 1.7 2.5 2.5zM751 322c0 .5-.7.7-1.5.4-.8-.4-1.5-.8-1.5-1 0-.2.7-.4 1.5-.4s1.5.4 1.5 1zm5.4 15.8c.9 1.6-.6 8.1-2 8.6-2.5 1-6.4-1.5-6.4-4.1 0-1.7.9-2.8 3.3-3.8 3.8-1.7 4.4-1.8 5.1-.7zm4.4 36.9c.2.8-.5 1.3-1.7 1.3s-2.1-.6-2.1-1.6c0-1.8 3.1-1.5 3.8.3zm-277.7 43.6c3.5 3.4 10.6 10 15.8 14.7 5.2 4.7 12 11 15 14.1 3.1 3 10.5 9.8 16.4 14.9 5.9 5.1 11.1 9.8 11.5 10.4.4.6 2.3 2.4 4.2 4 1.9 1.5 8.2 7.2 14 12.5 5.7 5.3 12.7 11.6 15.5 14.1 2.7 2.4 8.6 7.8 13 12 4.4 4.1 10.3 9.5 13 11.9 2.8 2.4 10.2 9.2 16.5 15.1 6.3 5.8 17.1 15.8 24 22.1 6.8 6.3 13.6 13.5 15.1 16 3.4 5.8 7.1 9.5 9.1 9.1 1.6-.3 2.3.3 7 5.6 1.4 1.6 3.3 3.4 4 3.9.7.4 2.8 2.7 4.7 5.1l3.3 4.2-2.3 1.8c-2.4 2-4.8 1.6-11.5-2-4.2-2.3-5-1.2-1.5 1.8 3.9 3.3 4.6 7.2 1.5 8-1.5.4-2.4 1.4-2.4 2.5 0 1.2-1 2.3-2.5 2.9-2.7 1-3.2 2.9-1.4 4.7 1.8 1.8.2 4.3-2.8 4.3-1.4 0-3.7-1-5-2.2-1.9-1.8-2.7-2-4.1-1.1-.9.6-1.6 2-1.5 3.2.2 1.2-.2 2.1-.7 2.1-.6 0-.9 1.2-.8 2.7.4 3.3-2.1 4.2-4.6 1.7-1.3-1.2-2-1.4-2.8-.6-.8.8-1.5.9-2.5.1-.9-.8-1.3-.8-1.3-.1 0 .6.8 1.7 1.8 2.4.9.7 1.8 2.5 2 3.9.3 2.2-.2 2.8-2.5 3.4-2.2.5-3.1.2-4.5-1.5-1.5-1.9-2.1-2-3.3-1-1.4 1.2-1.3 1.6.6 3.6 1.2 1.2 2.7 2 3.5 1.7.8-.3 1.4-.1 1.4.5s.3 1.7.6 2.6c.4 1.1.1 1.6-1.1 1.6-.9 0-1.3-.5-.9-1.1.4-.7-.1-1-1.2-.7-1.1.2-1.9 1.1-1.9 2.1 0 3.3-4.8 4.2-8.2 1.4-.7-.5-2.4-.6-3.7-.3-1.9.5-2.8.1-3.6-1.4-1.2-2.3-4.5-2.7-5.3-.7-1.1 2.8.5 6.7 2.9 7.3 1.3.3 3.6 2 5.1 3.8 2.5 3 2.5 3.1.6 3.4-1.2.2-2.4 1.3-2.7 2.5-.5 2.1-.6 2-3.7-1.1-1.7-1.7-3.7-3.2-4.4-3.2-1.7 0-2.7 6.8-1.4 9.2 1.2 2.2.4 5.2-1.1 4.3-1.9-1.2-4.6.5-6.3 4-1.1 2.2-2.9 4-5.2 4.9-4 1.7-6.1 1.3-7.6-1.5-.5-1.1-1.4-1.9-2-1.9-.6 0-.6.7.1 1.9.5 1.1 1 2.9 1 4.1 0 1.7-.5 2.1-2.7 1.8-2.5-.3-2.8.1-3.1 3-.3 3.1-2.4 4.4-3.7 2.2-1.2-2-4.3-1-4.9 1.5-.5 1.8-1.3 2.5-3.1 2.5s-2.5.5-2.5 1.9c0 2.8-1.8 3.6-3.9 1.7-1-.9-2.5-1.4-3.3-1.1-1.9.8-4.2 5-3.4 6.3.3.5-.1 1.5-.9 2.2-1.3 1.1-2 .9-3.8-.9-2.6-2.3-6.2-2.8-7.3-.9-.5.7-.7 2.7-.5 4.5l.3 3.3-5.3-.5c-2.9-.2-6.5-.7-8.1-1-2-.5-3-.2-3.4.9-.3.9-1.2 1.6-2 1.6s-1.4.7-1.4 1.5c0 2.2-8.6 2.1-9.8-.1-.8-1.4-1-1.4-2.2.1-1.1 1.3-1.1 2.1-.2 3.6 2.9 4.6-.6 5.2-9.2 1.4L498 725l-.6 4.1c-1 5.9-5.6 7.7-10.4 3.9-3.6-2.8-5.6-2.7-3.6.2 3.7 5.3.4 6.5-4.6 1.8-2-2-4.2-3.1-6.4-3.2-1.9 0-4-.1-4.6-.2-1.8-.1-2.3 3.5-.6 4.5.7.5 2.3.7 3.6.4 3.2-.8 2.7.6-1.2 3.3-3.2 2.2-3.8 2.3-7.3 1.1-2.1-.7-4.5-1.9-5.3-2.5-1.2-.9-2.9-.9-8 .2-3.6.7-7.1 1.4-7.9 1.4-.8 0-3.4-2.1-5.8-4.7l-4.4-4.8-1.9 2.3c-3.4 4.1-5.5 2.5-7.6-5.5-.2-.8-1.3-.4-3.1 1.3-2.5 2.3-3.4 2.5-9.3 2.2l-6.5-.3-.3 3.2c-.3 3.5-1.1 3.9-4 2.4-.9-.6-2.9-1.2-4.4-1.6-4.6-.9-4.6-2.8.6-21.5.8-3 2.7-10.2 4.2-16 3-11.8 4.2-16.3 11.8-44.1 3-10.8 6-22.5 6.7-26 .6-3.5 1.6-7.2 2.1-8.2.8-1.6 11.9-44.9 29.9-117.2 3.3-13.2 6.6-26 7.4-28.5 1.3-4.1 3.7-13.5 5.2-20 .3-1.4 2.6-7.6 5-13.9 2.4-6.3 5.1-14.4 6-18 .9-3.6 1.7-7.2 1.9-7.9.6-2.1 1.9-1.3 8.5 5.1zM747 422c1.3.9 1.3 1.1 0 2-2.2 1.4-5 1.2-5-.3 0-2.7 2.3-3.5 5-1.7zM50 446c0 1.7-.7 4.5-1.7 6.3-1.6 3.1-1.6 3.2-2.6.9-.6-1.2-1.6-2.2-2.2-2.2-2.5 0-2.5-3.1 0-5.6 3.5-3.5 6.5-3.2 6.5.6zm371.8 38.7c-.3 1.6-1.7 7.3-3.2 12.8-1.5 5.5-3.8 14-5.1 19-4.7 17.8-6.4 24.4-14 53-4.2 15.9-8.3 31.7-9.1 35-.8 3.3-3.1 11.8-5 19-1.9 7.1-6.8 26.8-10.9 43.8-4.2 16.9-8 31.9-8.6 33.4-.6 1.5-1.7 6.1-2.4 10.2-1.6 8.1-3.7 12.3-5.9 11.5-2-.8-3.1 3.3-1.5 5.3 2.1 2.5.6 10.4-2 10.3-.3 0-1.7-1.8-3-4-3-4.8-5.7-6-7.7-3.2-1.8 2.5-8.8 6.2-11.9 6.2-1.3 0-3.2 1.1-4.3 2.5-1.1 1.4-2.3 2.5-2.6 2.5-.3 0-.5-2.8-.3-6.2.3-8.2-1.9-8.6-4.2-.8-1.8 5.9-4.5 7.6-7 4.6-1.1-1.4-1.5-1.4-3.6 0-2.9 1.9-5.5.8-6.2-2.7-.4-2.3-1.1-2.8-3.7-3.1-1.7-.2-3.2-.9-3.2-1.6-.1-.6-.2-1.7-.3-2.2-.1-1.2-6.9-.3-8.7 1.1-2.1 1.7-9.4.3-12.2-2.4-1.8-1.7-4.8-3-9.2-3.8-3.6-.7-7.4-2-8.5-2.9-3.8-3.2-8.6-5-10.5-4-2.5 1.3-6.7 1.3-7.6-.1-.3-.6-2.7-2.1-5.3-3.3-5.3-2.4-10.1-5.9-10.1-7.3 0-.6 1.1-1.5 2.5-2.1 2.4-1.1 3.5-4.2 1.5-4.2-.5 0-1 .4-1 1 0 .5-.7 1-1.6 1-.9 0-1.2.5-.8 1.2.6 1 .4 1-.7 0-1.6-1.4-5.5-1.6-6.4-.2-.7 1.1-4.5 1.3-6.9.4-1.7-.6-2.2-3.4-.7-3.4 1.4 0 2.2-2.9 1.5-5.6-.7-2.9-1.8-3-6.9-.4-3.8 1.9-3.9 1.9-5.9.1-2.8-2.4-6.6-4.4-7.3-3.7-.4.3-1.7-1-3-2.9s-3-3.5-3.8-3.5c-.7 0-1.6-.9-2-2-.6-1.9-.6-1.9-4.2.1-4.8 2.7-6.9 1-3.1-2.6 1.4-1.3 2.9-2.1 3.3-1.7.4.4.1-.3-.6-1.6-.8-1.2-1.9-2.2-2.6-2.2-1.6 0-1.7-2.2-.3-3.6.7-.7.4-1.9-1-3.6-2.7-3.4-2.5-5.4.5-7.4 1.4-.9 2.5-2 2.5-2.4 0-1.3-3.7-5-4.4-4.3-.3.3-.6.1-.6-.5 0-.7-.7-1.2-1.5-1.2s-1.5.4-1.5.8c0 1.4-4 5.2-5.5 5.2-.9 0-1.5-1-1.5-2.3 0-1.2-.7-4-1.4-6.2-.8-2.2-1.2-4.3-.9-4.8.5-.8 5.4.2 6.8 1.4.5.5 2.3.9 4.1.9 2.4 0 3.9-.8 5.9-3.2 1.6-1.9 2.3-3.4 1.6-3.6-.6-.2-1.1-1.2-1.1-2.2 0-2.2-2.8-4.6-3.9-3.4-.5.5-1.1 1.8-1.3 2.8-.5 2.8-5.5 6.3-7 4.8-.8-.8-1.7-.8-3-.1-2.1 1.1-3.8.4-3.8-1.6 0-2.1-1.9-2.8-3.5-1.5-.8.7-2.1 1-2.9.7-2.3-.9-5.3 2-6 5.7-.8 4.2-1.8 5-5.2 4.2-1.7-.5-2.4-1.3-2.4-3.1 0-1.3.4-2.7 1-3 1.5-.9 1.2-5.5-.4-5.5-1.7 0-3.1 1.7-4.3 5.5-.5 1.6-1.7 3.1-2.6 3.3-2.3.5-4.2-4.5-2.8-7.3.5-1.1 1.2-3.3 1.6-4.8.7-3.4-.3-7.6-1.5-5.8-.5.9-1.2.8-2.5-.5-1.6-1.6-1.8-1.6-2.7-.1-1.1 2.1-4.4 2.2-5.2.2-.3-.8-1.2-1.5-2-1.5-1.9 0-3.8-3.3-3.1-5.2.4-.9-.4-1.9-2-2.6-2.2-1-2.4-1.5-1.5-3.2.8-1.6.8-2.2-.3-2.6-.8-.3-1.8-.4-2.3-.2-1.5.4-6.4-3.3-6.4-4.9 0-1.2.7-1.4 2.9-1 3.7.8 5.8-1.5 6.3-6.8l.3-4 4.8.1c8.5.2 9.5.4 10.1 1.9.3.9-.3 2.3-1.4 3.2-1.9 1.7-1.9 1.7.1 3 1 .8 2.8 1.1 3.9.8 1.6-.5 2-.2 2 1.9 0 1.4.4 2.8 1 3.1 1.2.7-1.7 5.5-3.4 5.5s-4.1-3.2-4.1-5.5c0-1.4-.6-1.9-2-1.7-1.1.2-3.6.5-5.5.5-3.1.2-3.5.5-3.2 2.7.2 1.4 1.2 3.2 2.2 4.1 2 1.7 3.6 6.3 3.2 9-.2 1.3.4 1.6 3 1.4 1.8-.2 3.6-.4 4.1-.4.4-.1.7-.7.7-1.5 0-2.3 5.1-7.9 6.2-6.8.6.6.6 1.7 0 2.8-1.3 2.5.2 6.4 2.5 6.5 1 0 2.6.2 3.5.4 2.6.5 3.2-1.2 1.5-3.9-1.5-2.3-1.2-7.5.4-7.7.5-.1 1.4-.3 1.9-.4.6-.1 1.7-.3 2.5-.4.9 0 2-1.2 2.7-2.5.9-2 1.6-2.4 3.8-1.9 4.2.8 4.5-1.4.5-3.3-3.3-1.5-3.7-1.5-7.7.5-3.7 1.8-4.4 1.9-5.8.6-.9-.8-2.2-1.5-2.8-1.5-.7 0-1.2-1.1-1.2-2.5 0-2.2.4-2.5 2.7-2.3 2 .2 2.8-.2 3.1-1.5.3-1.6-.1-1.7-3.1-1.2-2.2.4-3.7.3-4.2-.5-1-1.6 1.4-4 3.9-4 1.2 0 2.7-.9 3.4-2 2-3.2-1.5-4-3.8-1-1.6 2.1-2.1 2.3-4.4 1.2-1.5-.6-2.6-2-2.6-3.1s-.9-2.1-2.3-2.5c-1.3-.3-2.9-1.6-3.4-2.8-.9-1.9-1.1-1.5-.8 2.4.4 7.6-3.5 9-6.6 2.4-1.4-3-1.4-3.4 0-4.4 1.2-.7 1.3-1.3.5-2.2-2.1-2.2-7.7 2.3-8.9 7.1-.5 2.4-1.5 4.4-2.1 4.6-.7.2-2.5-1.4-4-3.6-1.6-2.2-3.3-4.1-3.9-4.1-.5 0-1.6-.4-2.4-.9-1.3-.8-1.3-1.2-.1-2.6 1.2-1.5 1.2-1.9-.3-3-1.9-1.3-2.3-5.5-.6-5.5.5 0 .7-.5.4-1-.3-.6-1.9-1-3.6-1-1.6 0-2.9-.4-2.9-.8 0-1.2 4.7-3.2 7.6-3.2 2 0 2.4.4 1.9 2.2-.5 2.5 1.5 5.8 3.8 6.2.8.1 2.3.8 3.2 1.6 1.4 1.2 1.8 1.2 2.5-.1.7-1-.1-2.5-2.7-5.1-2-2-3.3-4.3-3-5.1.4-1.2 13.5-5.5 21.7-7.1 1.4-.3 5.9-1.5 10-2.7 4.1-1.1 9.4-2.5 11.8-3 2.3-.5 5.2-1.4 6.4-2 1.2-.7 5.8-2 10.3-3 4.4-1 13-3.2 19-4.9 17.3-4.8 29.7-8.1 34-9 2.2-.5 6.9-1.8 10.5-2.8 3.6-1.1 11-3.1 16.5-4.6 5.5-1.4 17-4.5 25.5-6.7 8.5-2.3 17.1-4.5 19-4.9 1.9-.4 10.7-2.6 19.5-5 8.8-2.3 19.8-5.3 24.5-6.5 28-7.4 36.5-9.7 37.2-10.1.3-.2 2.6-.8 5-1.3s9.7-2.3 16.3-4.1c6.6-1.8 14.8-3.8 18.2-4.5 3.4-.8 7.4-2.1 9-2.9 4.6-2.5 6.6-2.1 6.1 1.1zm-363.4 6.9c2.4.9 1.9 3.3-.9 4-3.5.9-4.4.2-3.4-2.4.9-2.3 1.7-2.6 4.3-1.6zm-5.6 10.2c.2.7-.3 1.2-1.2 1.2-.9 0-1.6-.7-1.6-1.6 0-1.7 2.2-1.4 2.8.4zM64 536c0 .5-.7 1-1.5 1s-1.5-.5-1.5-1c0-.6.7-1 1.5-1s1.5.4 1.5 1zm17.8 1.2c-.3.7-1.4 1.4-2.6 1.6-1.6.3-2-.1-1.6-1.2.7-1.9 4.8-2.2 4.2-.4zm639.3 9.8c3.3 1.8 2.4 4.8-2 6-4.3 1.1-6.6.6-7.5-1.7-1.5-3.8 5-6.7 9.5-4.3zm-17.3 22.6c2.3 2.6 3 6.4 1.1 6.4-1.4 0-10.9-8-10.9-9.2 0-1.8 7.5.4 9.8 2.8zm-614 10.1c.2 1.4-.8 2.7-3.3 4.2-3.3 1.9-3.6 1.9-4.1.3-.3-.9-1-2.7-1.4-3.9-.9-2.2-.1-3.5 3-4.6 2.1-.7 5.4 1.6 5.8 4zM96 598c0 .5-.2 1-.4 1-.3 0-.8-.5-1.1-1-.3-.6-.1-1 .4-1 .6 0 1.1.4 1.1 1zm8.8 5.1c-.2.6-.8 1-1.3 1s-1.1-.4-1.3-1c-.2-.6.4-1.1 1.3-1.1s1.5.5 1.3 1.1zm47.5 44.5c-1.3 2.1-1.4 2.9-.3 4.9 1.7 3.2.6 5.7-2.2 5.3-3.2-.4-3.3-3-.7-9.3 1.7-4.2 2.5-5.2 3.5-4.4 1.1.9 1 1.6-.3 3.5z"/><path d="M365.5 53c-.9 1.5.4 3 2.5 3 1.3 0 1.7-.5 1.4-1.4-.7-1.8-3.2-2.8-3.9-1.6zM288 59.5c-.7.8-.8 1.5-.2 1.5.5 0 1.5-.7 2.2-1.5.7-.8.8-1.5.2-1.5-.5 0-1.5.7-2.2 1.5zM273.8 65.1c-1 .5-1.8 1.5-1.8 2.1 0 .6-.7 1.9-1.6 2.9-1.1 1.2-1.3 2.3-.7 3.3.8 1.4 1.3 1.2 3.8-1.4 1.6-1.6 3.5-3 4.3-3 1.8 0 1.1-4.4-.8-4.7-.8-.2-2.3.2-3.2.8zM297 68.7c0 2.2.2 2.5 1 1.3 1.3-2 1.3-4 0-4-.5 0-1 1.2-1 2.7zM307.7 75.4c-.3.8.1 1.7.9 2 .8.3 1.4-.1 1.4-.9 0-2-1.7-2.8-2.3-1.1zM246.7 98.2c-.6 1.8 2.2 4.8 3.9 4.1 1.9-.7 1.8-2.3-.3-3.9-2.3-1.7-3-1.7-3.6-.2zM239.2 105.7c.5 2.5 2.8 2.8 2.8.4 0-1.2-.6-2.1-1.6-2.1-.9 0-1.4.7-1.2 1.7zM244 115.1c0 1.1.5 1.7 1 1.4.6-.3 1-1.3 1-2.1s-.4-1.4-1-1.4c-.5 0-1 .9-1 2.1zM346.7 117.7c-.4.3-.7 1.1-.7 1.7 0 .6.5.5 1.2-.2.6-.6.9-1.4.7-1.7-.3-.3-.9-.2-1.2.2zM185.7 131.7c-.4.3-.7 1.9-.7 3.5 0 2.4.3 2.7 1.8 1.9 3.7-2.2 4.2-2.8 3.6-4.4-.6-1.7-3.5-2.3-4.7-1zM348.7 135.8c-1.2 1.3-1.3 1.9-.5 2 .7 0 2.2.2 3.3.4 1.4.2 2.1-.3 2.3-2 .4-2.8-2.7-3-5.1-.4zM344.5 142.1c-.4.6-.5 1.2-.2 1.5.2.3.7-.2 1-1.1.7-1.7.1-2-.8-.4zM158.1 152.7l-2.2 1.8 3 .2c2.1.2 3-.3 3.4-1.7.6-2.5-1.3-2.6-4.2-.3zM137 170c1.2 2.2 3 1.8 3-.6 0-.8-.9-1.4-2-1.4-1.8 0-1.9.3-1 2zM257.5 170c-.3.6.1.7.9.4 1.8-.7 2.1-1.4.7-1.4-.6 0-1.3.4-1.6 1zM475.4 52.4c-.7 1.8 2.3 5.9 3.6 5.1 1.1-.7.1-4.2-1.6-5.6-1.1-.9-1.5-.8-2 .5zM449.9 58.7c-.1.5-.1 1.1 0 1.5 0 .5-1 .8-2.3.8-1.8 0-2.5.7-2.9 2.6-.3 1.6 0 2.8.9 3.1 1.7.6 3.4-.4 3.4-2.2 0-.7.7-1.5 1.5-1.9 1.7-.6 2.1-4.6.5-4.6-.5 0-1.1.3-1.1.7zM538.2 81c-.3.8-.6 1.7-.8 2-.1.3 1.2.5 2.9.5 1.8 0 4.7.4 6.5.9 3 .7 3.2.6 3.2-1.8 0-2.7-.3-2.9-7.4-3-2.6-.1-4 .4-4.4 1.4zM493.4 82.4c-.8 2.2-.2 2.7 1.6 1.6 1.2-.7 1.2-1.2.3-2.1-1-1-1.4-.9-1.9.5zM480 82.9c0 .5.5 1.3 1 1.6.6.3 1 .2 1-.4 0-.5-.4-1.3-1-1.6-.5-.3-1-.2-1 .4zM502.8 85.5c.2 1.5 1.1 2.5 2.1 2.5s1.6-.9 1.6-2.5c0-1.9-.5-2.5-2.1-2.5-1.7 0-2 .5-1.6 2.5zM558.2 86.2c-2.1 2.1-1.3 2.8 1.6 1.6 4-1.7 4.4-2.3 1.9-2.6-1.3-.1-2.9.4-3.5 1zM559.6 98.6c-.9 2.4-.8 2.6 1.4 1.4 1.1-.6 2-1.5 2-2 0-1.6-2.7-1.1-3.4.6zM561.6 110.9c-.8 1.3.4 4.2 1.5 3.5 1.2-.7 1.2-4.4 0-4.4-.6 0-1.2.4-1.5.9zM617.3 137.6c-.4 1.1 0 2.2 1.2 3 2.8 2 3.4 1.7 2.6-1.3-.9-3.2-2.8-4.1-3.8-1.7zM644.7 149.7c-.4.3-.7 1.2-.7 2 0 1 .5 1.1 1.8.5.9-.5 2.4-.7 3.2-.5.9.3.7-.1-.5-1.1-2.2-1.7-2.9-1.9-3.8-.9zM651.1 151.6c0 1.1.3 1.4.6.6.3-.7.2-1.6-.1-1.9-.3-.4-.6.2-.5 1.3zM642.8 159.7c-2.8 1.8-4.8 5.2-4.8 8.3 0 1.5.9 1.9 5.1 2.2 3.1.2 5.9-.2 7-1 1-.7 2.2-1.2 2.6-1.1 2.5.4 3.4-.2 2.8-2.1-.4-1.1-.2-2 .4-2 .6 0 1.1-.9 1.1-2 0-1.4-.7-2-2.1-2-1.6 0-2 .5-1.7 2.7.2 2.1-.2 2.9-1.6 3.1-2.3.5-4.6-2.3-4.6-5.5 0-2.7-.6-2.8-4.2-.6zM582.7 182.1c-.4 1.6-.3 1.8.9.8 1.6-1.3 1.9-2.9.5-2.9-.5 0-1.1.9-1.4 2.1zM690.7 206.1c-1.3.8-1.4 1.4-.5 3.5 1.5 3.3-.2 5.2-2.6 2.9-.9-.9-1.6-2.3-1.6-3.1 0-1.7-2.6-1.9-3.6-.2-.5.7-.3.8.5.4.9-.6 1.1.1.6 2.7-.6 3.3-.5 3.5 2.4 4.2 2.6.5 3.5.2 5.6-2.2 1.3-1.5 2.5-3.4 2.5-4.1 0-.6.6-1.2 1.4-1.2 1.6 0 3.1-1.8 2.2-2.7-1-1-5.2-1.1-6.9-.2zM674.5 206.9c-.3.5-.1 1.2.4 1.5.5.3 1.1-.1 1.5-.9.6-1.6-.9-2.1-1.9-.6zM589 233c0 .5.5 1 1.1 1 .5 0 .7-.5.4-1-.3-.6-.8-1-1.1-1-.2 0-.4.4-.4 1zM563.5 243c-.3.5-.3 2 .1 3.3.3 1.4.1 2.8-.5 3.2-1.4.8-.5 2.5 1.3 2.5 1.6 0 2.5-3.9 1.8-7.5-.4-2.6-1.6-3.2-2.7-1.5zM375.8 318.7c.7.3 1.6.2 1.9-.1.4-.3-.2-.6-1.3-.5-1.1 0-1.4.3-.6.6zM89 254.7c-6.4.9-7.1 1.2-6.4 3.7.3 1.3.1 2.7-.5 3-.6.4-1.1 1.9-1.1 3.4 0 2.1 1.2 3.6 5 6.4 3 2.2 5.6 3.5 6.5 3.1 1.4-.5 1.4-.7 0-2.3-.9-1-3-2.4-4.6-3-1.9-.8-2.9-1.9-2.7-2.9.6-2.9 6.1-2.4 11 1.1 1.4 1 2.1 1 3.4-.3 1.4-1.5 1.4-2-.4-5.6-2.9-5.7-5.3-7.2-10.2-6.6zm5 6.7c0 .3-.4.8-1 1.1-.5.3-1 .1-1-.4 0-.6.5-1.1 1-1.1.6 0 1 .2 1 .4zM106.7 258.7c-.4.7.3 1.9 1.5 2.7 2.8 2 3.8 2 3.8.1 0-.8-.9-1.5-1.9-1.5-1.1 0-2.1-.5-2.3-1.2-.3-.9-.6-.9-1.1-.1zM82 288.9c0 1 3 2.4 3.7 1.7.3-.3.2-.9-.2-1.5-.8-1.3-3.5-1.5-3.5-.2zM95.6 290.4c.3.8 1.2 1.2 2 .9 1.7-.6.9-2.3-1.1-2.3-.8 0-1.2.6-.9 1.4zM104.7 295.1c.7.7 1.5 1 1.8.7.3-.3-.2-.9-1.2-1.2-1.4-.6-1.5-.5-.6.5zM64 313c-1.5 1-1.5 1 2.5 1 .3 0 .5-.3.6-.7.1-1.2-1.5-1.3-3.1-.3zM76.8 312.7c.7.3 1.6.2 1.9-.1.4-.3-.2-.6-1.3-.5-1.1 0-1.4.3-.6.6zM81.3 345.2c-2.3 2.9-2.4 3.8-.6 3.1 2.4-.8 4.3-2.3 4.3-3.4 0-1.3-2.6-1.1-3.7.3zM59.5 350c-.3.5-.2 1 .4 1 .5 0 1.3-.5 1.6-1 .3-.6.2-1-.4-1-.5 0-1.3.4-1.6 1zM100 358.1c0 .5.5.7 1 .4.6-.3 1-.8 1-1.1 0-.2-.4-.4-1-.4-.5 0-1 .5-1 1.1zM41.5 393.1c-.8 1.2 1.4 3.1 3 2.6.6-.2 1-1 1-1.8 0-1.7-3.1-2.4-4-.8zM51.5 423.1c-1.2 1.9.5 2.3 2.2.6 1.6-1.6 1.6-1.7.1-1.7-.9 0-2 .5-2.3 1.1zM47.5 425c-.3.5-.1 1 .4 1 .6 0 1.1-.5 1.1-1 0-.6-.2-1-.4-1-.3 0-.8.4-1.1 1zM164.5 426.9c-.3.5-.1 1.2.5 1.6.5.3 1-.1 1-.9 0-1.8-.6-2.1-1.5-.7zM156.2 433.2c.5 1.5 3.7 1.8 4.1.3.1-.6-.9-1.2-2.2-1.3-1.6-.3-2.2.1-1.9 1zM169 436c0 .5.5 1 1 1 .6 0 1-.5 1-1 0-.6-.4-1-1-1-.5 0-1 .4-1 1zM57.7 461.1c.8.8 1.6.8 3 0 1.6-.9 1.4-1-1.1-1.1-2.2 0-2.7.3-1.9 1.1zM271.5 468c.3.5 1.3 1 2.1 1s1.2-.5.9-1c-.3-.6-1.3-1-2.1-1s-1.2.4-.9 1zM53.5 474c.3.5.8 1 1.1 1 .2 0 .4-.5.4-1 0-.6-.5-1-1.1-1-.5 0-.7.4-.4 1zM52 479.2c0 .7-.3 2.3-.6 3.5-.5 1.7-.2 2.3 1 2.3 1.9 0 5-4.5 4.1-6-.9-1.4-4.5-1.3-4.5.2zM67.6 485.3c-1.4 1-1.6 1.6-.7 2.2 1.5.9 3.5-.8 3-2.4-.3-.8-1-.7-2.3.2zM718.1 270c-.5 1.6-.7 3-.4 3 .9 0 3.2-3.4 3.3-4.8 0-2.3-1.8-1.2-2.9 1.8zM703.5 298.9c-.3.5-.1 1.2.5 1.6 1.2.7 3-.2 3-1.6 0-1.2-2.7-1.2-3.5 0zM694.2 301.9c.4 1.3 1.8 1.6 1.9.4 0-.4-.5-.9-1.1-1.2-.7-.2-1.1.2-.8.8zM707.4 308.1c-2.4 2.6-.6 4.6 2.5 2.7 1.1-.7 2.1-1.8 2.1-2.4 0-2.1-2.8-2.3-4.6-.3zM730.5 335c-1.1.5-1.5.9-.9.9.6.1 2.1 2.3 3.3 5.1 2.2 5.2 2.9 5.8 4.8 3.9 1.6-1.6.3-6-2.3-7.1-1.3-.6-2-1.6-1.7-2.4.6-1.6-.3-1.7-3.2-.4zM576.1 352.4c-.9 1.1-.9 1.6-.1 2.1 1.4.9 6.1-1.5 5.4-2.7-.8-1.3-4-.9-5.3.6zM651.5 354c-.8 1.3.3 3 2 3 2 0 3-2.1 1.4-3.1-1.8-1.1-2.6-1.1-3.4.1zM643 358.5c.7.8 1.9 1.5 2.7 1.5 1.2 0 1.2-.2-.1-1.5-.8-.8-2-1.5-2.7-1.5-.9 0-.8.4.1 1.5zM729.5 364c.3.5 1.1 1 1.6 1 .6 0 .7-.5.4-1-.3-.6-1.1-1-1.6-1-.6 0-.7.4-.4 1zM740 435.1c0 .5.5.7 1 .4.6-.3 1-.8 1-1.1 0-.2-.4-.4-1-.4-.5 0-1 .5-1 1.1zM594.8 443.7c-1 .2-1.8.8-1.8 1.3 0 .4.9.6 2 .3s2-.9 2-1.4c0-.5-.1-.8-.2-.8-.2.1-1.1.3-2 .6zM683.7 511.9c-1.6.6-1.7.9-.4 1.9 1.1 1 1.8.8 3.2-.8 1.9-2.1.8-2.6-2.8-1.1zM680.8 546.7c.6.2 1.8.2 2.5 0 .6-.3.1-.5-1.3-.5-1.4 0-1.9.2-1.2.5zM691.7 548.7c.3.7 1.3 1.3 2.2 1.2 1 0 1.1-.2.3-.6-.6-.2-1-.8-.8-1.2.3-.4-.1-.8-.8-.8-.8 0-1.2.6-.9 1.4zM480.6 499.3c.3 1 .9 1.5 1.2 1.2.3-.3 0-1.1-.7-1.8-1-.9-1.1-.8-.5.6zM649.3 585.8c-1.7 1-.9 9 1 10.9.8.9 3.9 1.8 6.7 2.1l5.1.5-.7-2.8c-.5-2.1-.2-3.1 1.1-4.2 1.7-1.2 1.5-1.3-1.8-1.3-2 0-3.7.4-3.7.9s-.8 1.2-1.7 1.5c-2.3.9-4.2-1.7-3.6-4.8.5-2.6-.6-3.9-2.4-2.8zM499.5 629c.3.5.8 1 1.1 1 .2 0 .4-.5.4-1 0-.6-.5-1-1.1-1-.5 0-.7.4-.4 1zM479.5 633.9c-.3.5-.1 1.2.5 1.6.5.3 1-.1 1-.9 0-1.8-.6-2.1-1.5-.7zM622.4 643.2c.3 1.3.6 2.6.6 3 0 1.1 2.2 1 4-.2 1.2-.7 1.2-1.2-.4-2.9-2.6-2.9-5-2.8-4.2.1zM553.4 693.4c-.4 1-.2 2.2.4 2.8.8.8 1.3.7 1.8-.6.4-1 .2-2.2-.4-2.8-.8-.8-1.3-.7-1.8.6zM545 697.2c0 1.8 2.7 4.4 3.7 3.4.4-.4-.3-1.6-1.5-2.9-1.8-1.7-2.2-1.8-2.2-.5zM563 697.4c0 .7 1 1.6 2.3 2 3.7 1 4.1.7 2.2-1.4-2.1-2.3-4.5-2.6-4.5-.6zM540.6 702.9c-.3.5.3 2 1.4 3.2 1.5 1.9 1.9 2.1 2 .7 0-3.7-2.1-6.1-3.4-3.9zM554.5 704c-.3.5-.1 1 .4 1 .6 0 1.1-.5 1.1-1 0-.6-.2-1-.4-1-.3 0-.8.4-1.1 1zM152 594.1c0 .5.5.7 1 .4.6-.3 1-.8 1-1.1 0-.2-.4-.4-1-.4-.5 0-1 .5-1 1.1zM143 600.5c0 .8.6 1.5 1.4 1.5.7 0 1.9-.7 2.6-1.5 1.1-1.3.8-1.5-1.4-1.5-1.6 0-2.6.5-2.6 1.5zM155.5 606c-.4.6-.3 1.6.3 2.2.6.6 1.2.6 1.7-.2.4-.6.3-1.6-.3-2.2-.6-.6-1.2-.6-1.7.2zM143.3 634.9c0 1.1.5 1.7.9 1.5 1.1-.7 1-3.4-.1-3.4-.6 0-.9.9-.8 1.9zM244.6 635.7c-.6 1.4-.5 1.5.5.6.7-.7 1-1.5.7-1.8-.3-.3-.9.2-1.2 1.2zM181.6 645.9c-.3.5.3 1.1 1.4 1.4 2.4.6 3.6-.8 1.4-1.7-2-.8-2.2-.8-2.8.3zM292.6 675.5c-.9 2.6-.7 3.2.5 1.2.6-1 .9-2.1.6-2.3-.2-.3-.7.2-1.1 1.1zM302.7 723.6c-.4.4-.7 1.7-.7 2.8.1 1.9.1 2 1.1.3 1.1-1.9.8-4.3-.4-3.1zM314.9 726.3c-3.7 1.7-6.2 4.4-4.8 5.3.6.3 2.1.2 3.2-.4 1.2-.6 3-1.3 4-1.6.9-.3 1.7-1.5 1.7-2.6 0-2.3-.4-2.3-4.1-.7z"/></svg>